<svg xmlns="http://www.w3.org/2000/svg" xmlns:xlink="http://www.w3.org/1999/xlink" viewBox="0 0 858.4 895.81"><defs><style>.cls-1{fill:url(#Dégradé_sans_nom_89);}.cls-2{stroke:#f15a24;stroke-miterlimit:10;opacity:0.43;}.cls-3{fill:#3d4775;}.cls-4{fill:#bae3dd;}.cls-5{fill:#97c9ce;}.cls-6{fill:#2f8c91;}.cls-7{fill:#286f7f;}.cls-8{fill:#fcf4df;}.cls-9{fill:#e5674e;}.cls-10{fill:#f9896e;}.cls-11{fill:#fbc5ab;}.cls-12{fill:#534741;}.cls-13{fill:#fff;}.cls-14{fill:#ffcb4f;}.cls-15{opacity:0.84;}</style><linearGradient id="Dégradé_sans_nom_89" x1="-35.47" y1="218.36" x2="742.11" y2="667.3" gradientUnits="userSpaceOnUse"><stop offset="0" stop-color="#fbb03b"/><stop offset="0.14" stop-color="#f18641"/><stop offset="0.32" stop-color="#e65349"/><stop offset="0.46" stop-color="#df334d"/><stop offset="0.54" stop-color="#dc274f"/><stop offset="0.61" stop-color="#dd2c4e"/><stop offset="0.69" stop-color="#e0394c"/><stop offset="0.77" stop-color="#e55049"/><stop offset="0.86" stop-color="#ec6f45"/><stop offset="0.95" stop-color="#f5973f"/><stop offset="1" stop-color="#fbb03b"/></linearGradient></defs><title>chameleon</title><g id="Calque_2" data-name="Calque 2"><g id="cameleon_eye" data-name="cameleon eye"><path class="cls-1" d="M835.53,504.41c-23.95,49.91-55.44,61-110,155a825.72,825.72,0,0,0-61,130c-14.37,21.38-43.62,58.33-93,82-36.11,17.31-69.11,20.86-95,22-101.78,4.49-319.24,14.08-378-95-47.38-88,62.82-152.17,26-296-28.21-110.22-103.17-112.5-121-223-12-74.72,4.7-182.3,82-240,76.41-57,173.79-36.82,197-32,103.27,21.43,108.59,82.26,214,115,118.77,36.89,156.46-26.54,233,13C837.93,191.41,892.45,385.8,835.53,504.41Z"/><path class="cls-2" d="M455.53,415.41c.67,3.33,1.34,6.67,2,10,1.66,13.93,2.89,41.29-14,56-3.83,3.34-6.82,4.48-20,9-66.21,22.72-87.78,27.19-111,29l-2,.15-1.7.1a8.08,8.08,0,0,1-7.39-12.13l.07-.12c1.72-2.93,8.21-10,11-12,10.12-7.43,45.77-2.85,54-15,5.47-8.07-5.22-17.53-5-32,.22-14.3,11.1-33.1,54-55Z"/><path class="cls-3" d="M603.92,560.85h.64l.54,0h.06l.55,0h.11l.54,0h.1l.55-.07h0l.55-.09h.09l.52-.1.1,0,.53-.11h0l.51-.12.07,0,.5-.13.09,0,.5-.14,0,0,.5-.16h0l.49-.17.07,0,.47-.17,0,0c.32-.12.63-.26.93-.4l0,0,.44-.21,0,0c.3-.15.58-.3.86-.46h0l.39-.24,0,0c.13-.08.26-.16.38-.25h0c.25-.17.49-.35.72-.53l0,0,.32-.27h0c.22-.19.42-.38.61-.57h0l.27-.28v0A6.69,6.69,0,0,0,618,555h0a5.41,5.41,0,0,0,.44-.91h0c0-.1.07-.2.1-.3h0a3.37,3.37,0,0,0,.1-.61h0c0-.1,0-.2,0-.3h0c0-1.35-1-2.63-3.05-3.63-9.57-4.57-21.64,1-25.95,3.38,1-1.83,1.91-3.69,2.83-5.56.62-1.28,1.23-2.56,1.84-3.84l.84-1.79c2.21-4.76,4.37-9.54,6.66-14.26l.17.18.46.46.28.27.43.4.29.26.42.36.31.26.42.34.31.24.43.31.31.23.44.3.3.2.48.3.28.17.54.31.22.13.76.4.06,0,.71.35.25.11.53.23.29.12.49.19.31.11.47.17.32.1.46.15.32.09.47.13.31.08.48.11.3.07.51.1.27.05.59.1.18,0,.78.1h.09l.67.07.25,0,.5,0h.29l.46,0h1.48l.31,0,.42,0,.31,0,.41,0,.3,0,.42-.05.27,0,.48-.07.21,0,.66-.12.21,0,.44-.1.28-.06.36-.09.29-.09.33-.09.29-.09.31-.1.29-.1.29-.1.29-.11.27-.11.29-.12.26-.11.28-.13.23-.11.28-.14.2-.1q.54-.29,1-.6l.16-.1.25-.18.16-.11.24-.18.15-.12.23-.19.14-.12.21-.19.12-.12.2-.2.11-.12.18-.21.09-.11.18-.22.06-.1.17-.24v0a4.6,4.6,0,0,0,.45-.92l0-.07c0-.08,0-.16.07-.24l0-.11c0-.08,0-.15,0-.23a.5.5,0,0,1,0-.12c0-.08,0-.15,0-.23a.49.49,0,0,1,0-.12v-.23s0-.09,0-.13,0-.15,0-.23a.5.5,0,0,1,0-.12c0-.07,0-.15,0-.23l0-.11-.08-.24,0-.1a5.59,5.59,0,0,0-2-2.35c-8.36-6.06-24.25,0-29.1,2,1.6-3.24,3.27-6.44,5.07-9.58h0l.08-.12.16-.29h0l1.05-1.79a104.72,104.72,0,0,1,7.8-11.17c.45.33,1.05.75,1.78,1.23l.23.16,1,.65.28.17.64.38.48.28.38.22,1.32.71.7.36a35.26,35.26,0,0,0,10.31,3.46h0l.54.07.16,0,.41.05.15,0,.53.05h.09l.44,0h.16l.41,0h1.75l.47,0H639c.13,0,.25,0,.37,0h.11l.46-.05h0l.43-.06h.1l.36-.06h.07l.42-.09h0l.36-.08.08,0,.36-.1h0l.38-.12h0l.31-.12,0,0a6.36,6.36,0,0,0,.65-.28l0,0,.27-.15h0a5.41,5.41,0,0,0,.53-.35l0,0a4.28,4.28,0,0,0,.44-.4h0l.18-.2v0a3.79,3.79,0,0,0,.29-.45h0c0-.08.07-.16.1-.23v0a2,2,0,0,0,.12-.5v0c.17-1.39-.9-3.13-3.69-5.06-6.64-4.59-19.47-1.88-24.34-.61a103.08,103.08,0,0,1,8.39-9l1.77-1.64c.59-.53,1.18-1.06,1.78-1.58q3.6-3.1,7.49-5.87l.4.36c.08.06.16.14.24.21l.56.49c.61.52,1.35,1.16,2.24,1.89l.94.76.5.41c1.72,1.38,3.83,3,6.34,4.89l.36.26.12.08.25.17.14.1.23.15.16.09.22.14.16.1.23.13.16.09.23.13a.8.8,0,0,0,.16.08l.25.13.14.08.31.15.08,0,.4.19.11.05.29.13.15.06.25.1.17.07.24.09.17.07.23.08.18.07.23.08.18.05.24.08.17.05.26.08.15,0,.39.11.13,0,.28.07.17,0,.23.05.19,0,.21,0,.2,0,.2,0,.2,0,.2,0,.2,0,.19,0,.21,0,.18,0,.21,0h.17l.44,0h1.61l.21,0h.14l.22,0h.11l.24,0h.06a7.53,7.53,0,0,0,.85-.14h0l.23-.06.08,0L663,496l.09,0,.21-.07.09,0,.2-.07.08,0,.21-.08.06,0,.21-.1h0A5.48,5.48,0,0,0,665,495l0,0,.18-.13,0,0,.16-.13,0-.05.15-.13.05-.05a1,1,0,0,0,.14-.15l0,0a2.09,2.09,0,0,0,.14-.17l0,0a3.88,3.88,0,0,0,.54-.84h0l.09-.21,0,0a1.59,1.59,0,0,0,.07-.2l0-.06.06-.2,0-.06c0-.07,0-.14,0-.21v-.06c0-.08,0-.15,0-.22V492a6.58,6.58,0,0,0-.19-2.7c-2.48-9.44-21.63-7.72-28.24-6.84a102.31,102.31,0,0,1,13.33-7.74h0l1.73-.83c2.75-1.26,5.56-2.41,8.41-3.42l.08,0,.54.26.07,0,.53.23.06,0,.56.22.11,0,.55.19.1,0,.59.17h0l.58.14.09,0,.59.13.11,0,.59.1h.09l.59.08H668l.61.06h.11l.61,0h.11l.62,0h1.48l.61,0h.09l.62,0h0l.63-.07h.11l.61-.07.12,0L675,472H675l.6-.1.08,0,.61-.12.11,0,.6-.13.1,0,.62-.15h0l.62-.16.1,0L679,471l.11,0,.59-.19.06,0,.57-.19.06,0,.57-.2.1,0,.55-.21.09,0,.57-.23h0l.55-.24.08,0a4.9,4.9,0,0,0,.52-.24l.1,0,.51-.25.06,0,.51-.25,0,0,.5-.27.08-.05.47-.26.08-.05.47-.28h0c.16-.09.31-.19.46-.29l0,0,.43-.29.07-.05.41-.29,0,0,.4-.3h0c.14-.1.26-.21.39-.31l.05,0,.36-.3,0-.05.34-.31h0l.32-.32,0,0,.29-.31,0-.05.27-.31,0,0c.18-.22.34-.43.48-.64l0,0,.2-.31,0,0,.17-.31v0l.15-.31v0c0-.11.08-.21.11-.31l0,0,.09-.3v0a3.11,3.11,0,0,0,.09-.6v0a1.4,1.4,0,0,0,0-.29v0l0-.28v0a1.57,1.57,0,0,0-.06-.28h0c0-.09-.06-.18-.1-.27l0,0c0-.09-.08-.17-.13-.26l0,0a2.33,2.33,0,0,0-.17-.26h0c-.7-1-2.11-1.77-4.39-2.3-13.28-3.09-22.17,7.14-25,11q-4.41,1.54-8.65,3.49l-1.57.73a104.36,104.36,0,0,0-13.81,7.93c3.46-5.44,11.29-19.4,5.54-26.57-1.52-1.89-3-2.7-4.45-2.7h0a4,4,0,0,0-1.22.2h0a4.6,4.6,0,0,0-1.17.59h0a6.52,6.52,0,0,0-1.08.92l0,0a2.09,2.09,0,0,0-.2.22h0a10,10,0,0,0-.78,1l0,0c-.05.09-.11.17-.16.25l0,0-.51.84,0,0c0,.08-.09.17-.14.26l0,.09c0,.08-.09.17-.13.26l0,.09c-.14.28-.28.57-.41.88a1,1,0,0,0,0,.1c0,.08-.07.17-.11.26l-.06.14-.09.25-.06.15c0,.09-.07.17-.1.26s0,.08,0,.13l-.17.48-.06.19a1.55,1.55,0,0,1-.07.23l-.06.21c0,.08,0,.15-.07.23l-.06.22-.06.22c0,.11-.06.22-.08.33a2.68,2.68,0,0,0-.07.27l-.06.28c0,.07,0,.14-.05.21a2.38,2.38,0,0,0,0,.26c0,.07,0,.14,0,.21a2.74,2.74,0,0,1-.05.28l0,.19c0,.15-.06.3-.08.45s0,.08,0,.12,0,.24,0,.36l0,.18c0,.1,0,.2,0,.31a1.37,1.37,0,0,1,0,.19l0,.31c0,.06,0,.11,0,.17s0,.32,0,.47v.07l0,.42a.86.86,0,0,1,0,.16c0,.11,0,.22,0,.33a1.09,1.09,0,0,1,0,.18v1c0,.15,0,.3,0,.45a.76.76,0,0,0,0,.15c0,.11,0,.22,0,.33a1,1,0,0,1,0,.17l0,.33c0,.05,0,.1,0,.15s0,.31,0,.47h0l.06.46a.59.59,0,0,0,0,.14c0,.11,0,.22,0,.33a.78.78,0,0,1,0,.16l.06.32,0,.14c0,.15.06.3.1.45a57.08,57.08,0,0,0,1.55,5.63c.14.43.28.83.42,1.21s.28.72.41,1c.21.48.4.91.59,1.28q.09.19.18.36a12.6,12.6,0,0,0,.66,1.14l.14.21.23.3q-3.93,2.82-7.58,6l-1.88,1.66a105.2,105.2,0,0,0-9.61,10c1.7-6.43,5.75-25.08-3.49-27.63-.39-.11-.77-.19-1.12-.26h0l-.27,0h0l-.25,0h0l-.24,0h-1.23l-.19,0h0l-.18,0h0l-.18,0h0l-.17.05h0l-.16.06h0a.52.52,0,0,0-.16.06h0l-.15.06h0l-.16.08h0l-.14.08h0l-.15.09h0l-.14.1h0l-.14.1h0l-.13.12h0a1.59,1.59,0,0,0-.13.13h0l-.13.13h0a7.14,7.14,0,0,0-1.42,4.75h0V478h0v.27c0,.08,0,.17,0,.25v0c0,.08,0,.16,0,.25v0c0,.08,0,.16,0,.24v0c0,.08,0,.16,0,.24v.05l0,.24v0l0,.24v.05l0,.24v.06l0,.24v.06l0,.24v.06c0,.08,0,.16,0,.24v.06c0,.08,0,.16,0,.24v.07a2,2,0,0,1,0,.24l0,.07c0,.08,0,.16,0,.24l0,.07a2,2,0,0,0,0,.24v.08a2,2,0,0,1,0,.24l0,.07c0,.08,0,.16,0,.25l0,.07.06.24,0,.08c0,.08,0,.16.05.25l0,.08c0,.08,0,.16.07.24l0,.08.06.24,0,.08c0,.09.05.17.07.25l0,.08c0,.08,0,.16.07.25l0,.08c0,.08,0,.16.08.25l0,.07c0,.09.05.17.07.26l0,.07a2.58,2.58,0,0,0,.08.26l0,.07.08.26,0,.06.09.28,0,0,.09.29v0l.11.3h0c.26.77.55,1.55.87,2.32h0c0,.09.07.19.11.28l0,.06a2.44,2.44,0,0,1,.1.24l0,.09c0,.08.07.16.1.23l0,.11.1.21.05.12.09.21a.61.61,0,0,1,0,.12l.09.2.06.14.09.19.06.14.09.19.07.13c0,.07,0,.13.08.19s.05.1.07.14l.09.18a1,1,0,0,0,.07.15l.09.18.07.14.08.18.08.15.08.16c0,.06.06.11.08.16l.09.16.08.16.08.16a1.09,1.09,0,0,1,.08.15l.09.16c0,.05.05.11.08.16l.09.16a1.09,1.09,0,0,0,.08.15l.09.16a1.09,1.09,0,0,0,.08.15l.09.15.08.15.09.16.09.15a1.09,1.09,0,0,1,.08.15l.09.15.09.15.09.15.09.14.09.15a1.09,1.09,0,0,1,.08.15l.1.14.08.15.1.14.08.14a1.3,1.3,0,0,1,.1.15l.09.13.09.15.09.13.09.15.09.13.1.14.09.13.09.14.09.13.1.13.09.13a1.13,1.13,0,0,0,.1.13l.08.13a1.13,1.13,0,0,1,.1.13l.09.12.1.13.09.12a1.13,1.13,0,0,0,.1.13l.09.12.1.12.09.12.1.12a.76.76,0,0,1,.08.11l.11.13.08.1.12.13,0,0c-2.12,2.62-4.12,5.33-6,8.15-.52.8-1,1.6-1.53,2.41l-.92,1.49c-1.91,3.2-3.67,6.48-5.34,9.81.65-6.07.57-18.78-10.25-25.14-2.12-1.24-3.73-1.69-4.89-1.52h0a1.45,1.45,0,0,0-.3.06h0l-.28.09h0a2.12,2.12,0,0,0-.51.28h0a1.24,1.24,0,0,0-.22.18h0a1.29,1.29,0,0,0-.19.21h0a3.56,3.56,0,0,0-.46.79v0a2.83,2.83,0,0,0-.11.31h0a5.48,5.48,0,0,0-.21,1.07v0a2.56,2.56,0,0,0,0,.39v0a9.76,9.76,0,0,0,0,1.31v0c0,.15,0,.3,0,.45v0c0,.15,0,.31.07.47v0c0,.33.11.67.19,1v0l.12.5v.05c0,.17.08.35.13.52v0c.1.36.2.72.32,1.1v0l.18.54,0,.07.19.54,0,.06c.14.38.29.77.45,1.16l0,0c.07.19.15.37.23.56l0,.08c.08.19.16.38.25.56l0,.08.27.58v0l.28.58,0,0c.09.2.19.39.29.58l0,.09.29.56.05.09c.1.19.21.38.31.58l0,.06c.1.19.21.38.32.57l0,0c.11.2.22.39.34.58l0,.09.34.56.06.1c.11.19.23.37.35.56l.05.07c.12.2.25.39.37.58h0l.39.57.06.09.38.54.07.1.39.54.06.08.42.56h0c.14.19.28.37.43.54l.05.08.43.52.07.09.43.51.08.08.45.52,0,0,.45.5.06,0c.15.17.3.33.46.49l.08.08.46.47.09.08.48.46.05,0,.48.44.05,0,.49.44.09.07.49.41.09.07.51.4.07,0,.52.39,0,0,.54.37.08.06.52.35.1.06.29.18c-2.45,5-4.75,10.14-7.12,15.2l-1.13,2.39c-1.33,2.8-2.7,5.57-4.14,8.31-1.76-6.09-7.66-24.79-14.1-27a4.14,4.14,0,0,0-4.64,1l0,0a5.2,5.2,0,0,0-.54.68l0,.06a6.83,6.83,0,0,0-.44.8l0,.07a4.68,4.68,0,0,0-.19.45h0c0,.15-.11.3-.15.46l0,.07c-.05.16-.09.32-.14.49v0c0,.16-.07.32-.1.48l0,.07-.09.53s0,0,0,.07l-.06.51v.06c0,.19,0,.37,0,.56,0,0,0,.06,0,.09,0,.18,0,.36,0,.54v0c0,.19,0,.39,0,.58v.11l0,.57v0c0,.2,0,.4.06.6v.12c0,.41.11.81.18,1.22l0,.13c0,.2.08.41.12.61v0c.05.2.09.39.14.58a.74.74,0,0,1,0,.14c.06.2.11.4.18.6a.19.19,0,0,0,0,.07l.18.55s0,.08,0,.13.14.39.22.59a.3.3,0,0,1,0,.1l.22.51.06.12c.08.2.18.39.27.58l.06.11c.09.17.17.34.26.5l.06.11c.11.18.21.37.33.55l.07.12.32.49a.56.56,0,0,1,.05.08l.38.52.09.12.38.48,0,0c.14.16.28.33.43.49l.11.12.47.48h0a39.3,39.3,0,0,0,12.83,8.46c.85.34,1.57.59,2.14.76a112.71,112.71,0,0,1-8.06,12.91h0l-.06.07-.12.17h0l-1,1.33h0c-.08.09-.15.19-.22.28l0,0h0c-.68.88-1.38,1.75-2.11,2.6a88.75,88.75,0,0,1-32,23.87c-1.19.52-.19,2.28,1,1.76a90.26,90.26,0,0,0,29-20.36c1.89-2,3.66-4,5.33-6.17L580,568.1a116.38,116.38,0,0,0,8.73-13.77l.38.4.1.1.51.5.05,0,.51.45.07.07.53.44.1.08.53.41.08.06c.17.13.35.25.53.37l0,0c.18.13.37.25.55.36l.11.07q.27.18.54.33l.11.06.56.32h0l.58.29.11,0,.55.26.12.05.57.25.06,0,.55.21.09,0,.57.19.12,0,.57.18.1,0a4.94,4.94,0,0,0,.55.15l.06,0,.58.14.12,0,.57.12.11,0,.58.09h0l.59.08h.11l.56.06H602l.57,0h.06l.55,0h.77Z"/><path class="cls-4" d="M710.52,628.24S609.92,607.38,548.44,631c-20.86,8-34.67,18.58-43.81,29.06-19.05,21.84-8,56.16,20.25,62.75,13.54,3.16,30.92,3.67,52.53-2C641.08,704,710.52,628.24,710.52,628.24Z"/><path class="cls-5" d="M545.48,683.65l13-4.21,36.11,35.48,1.49-.61-36-35.39,12.27-4q17.54,16.69,33.55,34.9l1.36-.68q-15.88-18.09-33.31-34.74l11.78-3.82,31.84,33.06,1.32-.76-31.6-32.81,12.35-4q16.17,14.14,31.15,29.56l1.26-.81q-14.79-15.27-30.77-29.28L614,661.42q14.35,12.89,27.55,27l1.22-.86q-13-13.89-27.14-26.65l10.35-3.36q13.44,11.12,25.81,23.42l1.19-.9Q640.78,668,627.6,657l12.63-4.1A140.17,140.17,0,0,1,663,672.19l1.15-.93A140.87,140.87,0,0,0,642,652.32l4.31-1.4a.75.75,0,0,0,.74-.24l3.12-1a72.89,72.89,0,0,1,19.59,16.93l1.13-1A74.2,74.2,0,0,0,652,649.07l9.47-3.08A145,145,0,0,1,678,659.53l1.12-1a145.64,145.64,0,0,0-15.89-13.12l8.8-2.86,10.28,9.95c.56.55,1.13,1.11,1.7,1.65l1.08-1-2.5-2.45-9-8.68,7.44-2.42q5.34,3.63,10.33,7.71l1.09-1q-4.68-3.81-9.65-7.26l8.69-2.81c2.15,1.57,4.23,3.24,6.22,5l1.06-1q-2.68-2.38-5.56-4.53l5.24-1.7,3.83,2.76,1.05-1.06-3.14-2.27,7.83-2.54c1.62-1.7,2.49-2.64,2.49-2.64s-1.22-.26-3.48-.67l-8.72,2.83a35.09,35.09,0,0,0,2.33-4l-1.53-.26a32,32,0,0,1-3.22,5l-6.1,2a50.11,50.11,0,0,0,4.41-7.76l-1.51-.23a48.49,48.49,0,0,1-4.81,8.14.74.74,0,0,0-.14.52l-11.21,3.64q3.91-6.65,7.35-13.54l-1.55-.2q-3.69,7.35-7.92,14.43l-10.09,3.27q5.25-9.21,10-18.68l-1.56-.17q-5,9.9-10.53,19.53l-12.36,4q7.35-12,13.75-24.47l-1.59-.14q-6.66,12.93-14.34,25.32l-8.15,2.64,11.64-28.81-1.55-.1q-6,14.76-11.92,29.51l-15.8,5.13a367.37,367.37,0,0,0,18.81-35.11l-1.61-.06a364.44,364.44,0,0,1-19.37,35.87l-14.47,4.7q8.72-20.45,17.42-40.87H621.1L603.43,661.2,597.91,663l-6.71,2.18L609.35,620l-1.62.08-18.36,45.66L579,669.12q7.07-24,14.12-48l-1.59.17q-7.08,24-14.15,48.08a.55.55,0,0,0,0,.25l-14.8,4.8L579.28,623l-1.63.28q-8.42,25.89-16.81,51.79l-11.09,3.59q5.34-25.79,10.67-51.58l-1.61.45-10.68,51.66L536.33,683A455.28,455.28,0,0,1,544,632.76l-1.67.72a455.39,455.39,0,0,0-7.5,50l-19.15,6.21q2.12-22.65,6.35-45c-.6.41-1.18.82-1.75,1.23q-4.05,21.86-6.1,44a.67.67,0,0,0,0,.25l-8.06,2.62,1.79-36.31c-.54.54-1.06,1.09-1.56,1.63q-.87,17.58-1.73,35.17l-8,2.58c.31,1.11.68,2.21,1.09,3.28l2.21-.72,21.61,23.42q1.34.43,2.73.78-11.4-12.35-22.79-24.7l7.12-2.31,27.22,29c.73.08,1.46.14,2.21.2Q524.12,710,510.17,695.11l11.06-3.59q15.13,16.71,30.28,33.43l1.88-.12L522.77,691l9.64-3.13.27-.09a464.37,464.37,0,0,1,32.17,35.66l1.67-.29a466.74,466.74,0,0,0-32.27-35.88l1.24-.4a.54.54,0,0,0,.26-.09l8.08-2.62q19.53,16.85,37.38,35.49l1.59-.49Q565,700.54,545.48,683.65Z"/><path class="cls-4" d="M553.16,395s-92.22,96.09-108.67,179.85c-5.59,28.42-3.49,50.87,1.72,68.12,10.86,36,56.17,47.47,82.85,21,12.8-12.69,25.34-31.43,34-59.08C588.46,523.41,553.16,395,553.16,395Z"/><path class="cls-5" d="M500.29,614.39l4.32-17.14L568.46,582c.12-.68.23-1.36.35-2l-63.67,15.16q2-8.1,4.07-16.21,30.42-7.76,61.44-12.8c.07-.65.13-1.3.19-1.95q-30.81,5-61.1,12.64,2-7.79,3.92-15.57l58.24-12.19c0-.66.06-1.31.08-2l-57.8,12.09,4.11-16.32q26.67-8,53.92-13.84c0-.65,0-1.3,0-1.95q-26.94,5.73-53.36,13.62l4.23-16.81q24.06-6.89,48.61-11.66c0-.65-.06-1.29-.1-1.93q-24.21,4.69-48,11.44l3.45-13.69q21.47-7.1,43.5-12.19c-.06-.65-.11-1.29-.17-1.93q-21.64,5-42.78,11.92l4.2-16.69a181.59,181.59,0,0,1,36.86-11.67c-.08-.64-.15-1.27-.23-1.91a185,185,0,0,0-36,11.25c.47-1.89,1-3.79,1.43-5.68a1,1,0,0,0,.24-1c.35-1.37.69-2.74,1-4.11a94.22,94.22,0,0,1,32.1-9.85l-.27-1.9a96.49,96.49,0,0,0-31.21,9.29l3.15-12.51a188.51,188.51,0,0,1,26.24-8.81c-.11-.63-.21-1.27-.31-1.9a189.3,189.3,0,0,0-25.36,8.41q1.47-5.8,2.93-11.63l18-4.43,3-.73-.33-1.87-4.41,1.06-15.72,3.87q1.23-4.92,2.47-9.84,7.67-3.36,15.58-6c-.12-.63-.25-1.27-.37-1.89q-7.43,2.5-14.62,5.59,1.45-5.75,2.89-11.48,4.83-1.92,9.79-3.38c-.13-.64-.27-1.27-.4-1.88q-4.47,1.31-8.82,3,.87-3.47,1.75-6.93l5.66-2.3c-.14-.65-.29-1.28-.43-1.89l-4.66,1.89,2.61-10.35c-.75-3-1.19-4.55-1.19-4.55s-1.12,1.16-3.13,3.35l-2.9,11.54a43.41,43.41,0,0,0-2.75-5.29l-1.33,1.5a40.81,40.81,0,0,1,3.27,7c-.67,2.69-1.35,5.37-2,8.06a65.22,65.22,0,0,0-5.49-10.19l-1.29,1.5a62.54,62.54,0,0,1,5.62,10.88,1,1,0,0,0,.47.52l-3.72,14.82q-4.6-8.88-9.81-17.4l-1.29,1.56q5.54,9.12,10.39,18.64-1.68,6.66-3.35,13.33-6.51-12.1-13.61-23.86l-1.28,1.6q7.42,12.32,14.2,25L531,473.88q-8.09-16.31-17.4-32l-1.25,1.65Q522,459.8,530.3,476.76q-1.35,5.39-2.71,10.77L504,454.91c-.4.54-.79,1.08-1.18,1.63L527,490l-5.25,20.89A473.8,473.8,0,0,0,496.14,466L495,467.72a473.89,473.89,0,0,1,26.05,46q-2.41,9.57-4.81,19.13l-32.89-47.28-1.09,1.77,33.36,48q-.93,3.65-1.84,7.29l-2.23,8.87-37.07-51c-.35.6-.69,1.21-1,1.82l37.5,51.63-3.44,13.68L464.52,519l-.92,1.86q21.54,24.33,43.06,48.67a.92.92,0,0,0,.25.2L502,589.29q-22.51-26.91-45-53.83c-.28.66-.55,1.32-.83,2l45.29,54.13q-1.83,7.33-3.68,14.66L448.43,559c-.21.69-.41,1.39-.61,2.08l49.37,47.32L493.26,624a589.56,589.56,0,0,1-49.87-43c-.13.78-.25,1.56-.37,2.33A592.7,592.7,0,0,0,492.76,626q-3.18,12.66-6.37,25.31-23.43-17.92-45.08-38,.06,1.4.15,2.76,21.21,19.51,44.15,37a.89.89,0,0,0,.29.15q-1.35,5.32-2.68,10.65l-38.64-27c.23,1,.47,1.91.72,2.84l37.42,26.12q-1.32,5.28-2.65,10.54c1.43.42,2.89.77,4.35,1.06.25-1,.49-2,.74-2.92l40.59-7.6c.93-.77,1.85-1.59,2.74-2.45l-42.82,8L488,663.1l50.58-9.91c.58-.75,1.16-1.51,1.74-2.29l-51.8,10.15,3.67-14.61,57.58-10.22c.39-.7.78-1.42,1.17-2.14l-58.24,10.33L496,631.66l.09-.35a600.75,600.75,0,0,1,61.32-10.76c.28-.67.55-1.35.83-2a604.21,604.21,0,0,0-61.63,10.71l.42-1.64a.85.85,0,0,0,.08-.35l2.69-10.67q31.95-9.84,64.72-16.6c.19-.69.38-1.38.56-2.07Q532.29,604.59,500.29,614.39Z"/><path class="cls-6" d="M671,551s-119.28,19.31-176.92,71c-19.57,17.56-30.3,35-35.94,50.32-11.77,32,14.81,65.05,48.59,60.44,16.2-2.21,35.51-9,56.86-24.28C626.54,663.38,671,551,671,551Z"/><path class="cls-7" d="M513,681.2l12.49-10.07L580,695c.46-.43.92-.86,1.37-1.3L527,669.9l11.81-9.52q26.28,11,51.51,24.25l1.21-1.31q-25.05-13.22-51.19-24.18L551.66,650l48.86,23,1.14-1.38-48.49-22.78,11.88-9.6q23.72,8.76,46.64,19.41c.35-.47.69-1,1-1.43q-22.65-10.56-46.1-19.25L578.87,628q21.18,8.13,41.6,18.08c.32-.49.65-1,1-1.46q-20.13-9.81-41-17.89l10-8q19.43,6.59,38.18,14.9l.93-1.49Q611.1,624,592,617.44l12.15-9.81a165.41,165.41,0,0,1,33.08,11.66c.3-.5.59-1,.88-1.51a167.83,167.83,0,0,0-32.27-11.51l4.14-3.34a.89.89,0,0,0,.72-.58l3-2.42a85.63,85.63,0,0,1,28.64,10.38l.84-1.52a87.42,87.42,0,0,0-27.7-10.3l9.11-7.35a169.89,169.89,0,0,1,23.83,7.94l.81-1.55a171.15,171.15,0,0,0-23-7.74q4.23-3.42,8.47-6.83l15.47,6.61,2.56,1.1.78-1.54c-1.27-.53-2.52-1.1-3.78-1.63l-13.5-5.78,7.16-5.78q7.39,1.75,14.59,4.13c.25-.53.51-1.06.76-1.58q-6.74-2.24-13.64-3.92l8.36-6.75q4.53,1.24,8.94,2.9l.73-1.59q-4-1.49-8-2.64l5-4.07,5.37,1.42.71-1.6-4.4-1.17,7.53-6.08c1.07-2.55,1.63-4,1.63-4s-1.45.23-4.1.72l-8.4,6.78a39.29,39.29,0,0,0,.9-5.33l-1.79.36a37.3,37.3,0,0,1-1.44,6.85l-5.86,4.73a59.34,59.34,0,0,0,1.58-10.38l-1.76.38a56.33,56.33,0,0,1-1.86,11,.89.89,0,0,0,.06.63l-10.79,8.71q1.51-8.94,2.39-18l-1.79.43q-1,9.63-2.64,19.18l-9.7,7.83q1.89-12.31,3.15-24.72l-1.79.47q-1.35,13-3.37,25.87l-11.89,9.6q3-16.23,4.83-32.66L615,564q-1.89,17-5.12,33.84L602,604.16l.69-36.54-1.75.54q-.35,18.72-.71,37.42L585,617.85A429.68,429.68,0,0,0,591,571.39l-1.79.6a429.63,429.63,0,0,1-6.22,47.54L569,630.77q1-26.12,2-52.22l-1.76.69-2,53-5.31,4.29-6.46,5.21,1-57.23-1.75.76q-.5,28.95-1,57.89l-10,8-4.62-58.62-1.68.85q2.31,29.39,4.64,58.77a.88.88,0,0,0,.07.29L527.9,663.94q-1.64-31.8-3.26-63.6c-.56.33-1.12.65-1.68,1l3.27,63.95-10.66,8.61q-5-30.58-9.94-61.16l-1.58,1.18,10,61.24-11.36,9.16A531.56,531.56,0,0,1,490,625.93l-1.54,1.48a536,536,0,0,0,12.75,58.08q-9.21,7.44-18.43,14.87-7.19-25.79-11.93-52.14c-.48.7-.94,1.39-1.4,2.09q4.71,25.71,11.78,50.94a.79.79,0,0,0,.13.26l-7.76,6.26q-6.65-20.32-13.28-40.64c-.36.82-.7,1.63-1,2.44l12.87,39.36-7.68,6.2c.82,1.08,1.68,2.13,2.58,3.14l2.13-1.72,33.56,16.65c1.11-.05,2.21-.15,3.33-.28l-35.4-17.57,6.86-5.53,42.06,20.42c.83-.22,1.67-.46,2.52-.71L479,708.61,489.64,700l47.3,24,2-.92-47.84-24.29q4.63-3.75,9.28-7.49l.25-.21A544.62,544.62,0,0,1,551,716.81l1.71-1a549.64,549.64,0,0,0-50.51-25.87l1.2-1a.79.79,0,0,0,.25-.2l7.77-6.27q28.53,10.31,56,23.3l1.54-1.2Q541.51,691.56,513,681.2Z"/><path class="cls-8" d="M339.17,205.83c-8.05,10.3-9.58,28.46-9.87,35A215.64,215.64,0,0,0,317,219.12c19.46-38.57,19.37-83.84,19.37-83.84s-1.82,9.93-12.19,35.09c-9.15,22.22-8.67,40.73-8.09,47.35a194.69,194.69,0,0,0-13.47-18.2q-2.59-3.11-5.3-6.06c-.07-13.13,13.67-28.5,19.71-46.64,4.55-13.65-7.62-35-7.62-35s8.91,20.2-3.81,38.39c-10.16,14.51-9.2,35.34-8.41,43.14A173.9,173.9,0,0,0,278.93,176a305.79,305.79,0,0,0,8.61-29.53c3.54-15.4,5.17-51.38,5.17-51.38a183.64,183.64,0,0,0-12,31.81c-4.39,15.53-2.8,42-2.31,48.67a166.74,166.74,0,0,0-16.8-12c.9-3.94,3.89-17.29,6.31-31.34,2.88-16.75-1.76-60.72-1.76-60.72s-2.15,12.42-7,38.94c-4.19,22.8.46,46.51,1.84,52.72a166.07,166.07,0,0,0-16.35-8.87c-2.79-4.11-12.17-14.66-38.77-23.33-31.27-10.19-42.12-11-42.12-11s47.1,36.7,79.49,36.24A164.25,164.25,0,0,1,257.82,164c-6.62,1.06-30.42,5.38-53.39,16-27,12.55-34.63,17.27-34.63,17.27s48.43-10.61,65.29-19.3a236.4,236.4,0,0,0,23.49-13.55,163.41,163.41,0,0,1,17.65,12.38c-6.45,1.12-31,6.14-45.79,19.5-17.14,15.49-35.88,17.84-35.88,17.84s18.31,2.19,44-14.4c21.28-13.76,34.31-20.66,38.13-22.61a172.5,172.5,0,0,1,19.43,18.41c-5.68.44-23.24,2.64-39.06,13.41-19.19,13.07-45.86,21.63-45.86,21.63s35.64-2.64,60.57-16.16c18-9.75,23.67-15.31,25.45-17.66a193.71,193.71,0,0,1,17.3,22.69c-4.91-.27-21.18-.31-41.81,8.88-24.82,11-44,19.62-44,19.62s65.75-9.92,86.41-27.57a218.91,218.91,0,0,1,12.73,22.61c-4.23-.72-17.36-2-32.54,6.21-18.51,10-27.71,10.88-40,10.53,0,0,25.2,5,39.06-1.26,16.21-7.28,25.54-14.91,33.65-15.2,2.39,4.9,4.49,9.68,6.35,14.25,14.89,36.67,17.33,68.18,17.36,68.49a1.14,1.14,0,0,0,1.22,1.06.93.93,0,0,0,.24-.05,1.14,1.14,0,0,0,.82-1.18c0-.31-2.48-32.12-17.49-69.11q-3.07-7.55-6.53-14.68c2.58-4.72,12.09-21.93,19.07-32.85,8.16-12.74,2.16-48.84,2.16-48.84S349.13,193.08,339.17,205.83Z"/><path class="cls-9" d="M313.55,240.34c-4.38,8.2-3.22,21.11-2.62,25.75a154.53,154.53,0,0,0-11.26-13.73c8.9-29.4,3.3-61.09,3.3-61.09s-.06,7.19-4.24,26.07c-3.69,16.68-1.09,29.58.13,34.15a139.51,139.51,0,0,0-11.66-11.1c-1.47-1.23-2.95-2.43-4.46-3.59-1.66-9.18,6.09-21.64,8.1-35.07,1.51-10.12-9.63-23.61-9.63-23.61s8.72,13.06,2,27.35c-5.33,11.41-2.12,25.88-.6,31.25a125.78,125.78,0,0,0-14.92-9.87,217.65,217.65,0,0,0,2.42-21.73c.59-11.22-2.67-36.62-2.67-36.62A130.12,130.12,0,0,0,263,192.25c-1.18,11.41,3.18,29.76,4.34,34.37a118,118,0,0,0-13.24-6.32c.15-2.87.61-12.59.59-22.72,0-12.08-8.67-42.31-8.67-42.31s0,9-.16,28.13c-.14,16.48,6,32.52,7.75,36.7A118.31,118.31,0,0,0,241,215.89c-2.46-2.54-10.32-8.78-30-11.59-23.14-3.32-30.85-2.58-30.85-2.58s37.48,19.93,60.11,15.65A114.29,114.29,0,0,1,251.46,221,154.52,154.52,0,0,0,216,238.8c-17.39,12.09-22.14,16.33-22.14,16.33s32.62-13.36,43.36-21.51a167.27,167.27,0,0,0,14.79-12.36,118,118,0,0,1,13.88,6.5c-4.38,1.58-21,8.1-29.68,19.27a51.69,51.69,0,0,1-22.94,16.89s13.09-.72,29-15.47c13.22-12.25,21.49-18.67,23.93-20.5a122.62,122.62,0,0,1,15.87,10.51c-3.93,1-16,4.7-25.72,14.17-11.83,11.5-29.47,20.76-29.47,20.76s24.64-6.21,40.44-18.73c11.4-9,14.7-13.62,15.66-15.48A136.43,136.43,0,0,1,297.93,253c-3.46.41-14.86,2.38-28.19,11.34-16,10.77-28.41,19.13-28.41,19.13s44.83-15,57.14-29.89a153.43,153.43,0,0,1,11.68,14.28c-3,0-12.39.74-22,8.33-11.74,9.25-18.07,11-26.75,12.27,0,0,18.26.4,27.21-5.66,10.46-7.08,16.06-13.57,21.7-14.77,2.27,3.15,4.33,6.24,6.19,9.21A179.77,179.77,0,0,1,337,323a.82.82,0,0,0,1,.59l.16-.06a.83.83,0,0,0,.43-.93,182,182,0,0,0-20.71-46.26q-3.08-4.9-6.37-9.48c1.23-3.62,5.78-16.84,9.34-25.34,4.15-9.92-4.48-34.47-4.48-34.47S319,230.19,313.55,240.34Z"/><path class="cls-10" d="M287.24,574.55c7.67-1.4,15.56-8.88,18.3-11.69a131.39,131.39,0,0,0-3.17,14.56c-24,9.45-41.9,29.64-41.9,29.64s4.75-3.7,19.36-10.79a62.1,62.1,0,0,0,22.39-17.86A116.87,116.87,0,0,0,301,591.86c-.05,1.6-.07,3.2-.05,4.8-5.17,5.87-17.4,7.26-27.29,12.94-7.44,4.27-10.51,18.62-10.51,18.62s4.05-12.53,16.93-15.58c10.29-2.43,18.13-12.08,20.88-15.87a102.79,102.79,0,0,0,1.28,15,179.42,179.42,0,0,0-15.56,9.73C279,626.9,264,642.28,264,642.28a109.56,109.56,0,0,0,18-9.4c8.12-5.17,17.92-17.6,20.35-20.76a99.74,99.74,0,0,0,2.73,12c-2,1.39-8.59,6.15-15.25,11.45-7.93,6.31-23.32,27.73-23.32,27.73s5.89-4.67,18.59-14.55c10.92-8.48,18.26-20.89,20.11-24.2A98.5,98.5,0,0,0,308.92,635c-.39,2.94-.4,11.36,8,25.78,9.88,17,14.37,21.63,14.37,21.63s-6.4-35-21-47.69a97.13,97.13,0,0,1-3.41-9.26,129.54,129.54,0,0,0,30.14,14c17,5.14,22.27,6.06,22.27,6.06s-25.77-14.5-36.73-17.33A137.83,137.83,0,0,0,306.71,625a98.13,98.13,0,0,1-2.95-12.53c3.33,2.07,16.24,9.58,28.13,9.5A43.34,43.34,0,0,1,355,628.21s-7.28-8.24-25.29-11c-14.93-2.32-23.47-4.42-26-5.07a103,103,0,0,1-1.34-15.91,50.22,50.22,0,0,0,22.71,9.53c13.73,1.8,29,8.58,29,8.58s-16.92-13-33.38-16.85c-11.88-2.8-16.62-2.58-18.35-2.24a115.72,115.72,0,0,1,1.31-17c2.07,2.07,9.3,8.54,22.14,12.64,15.43,4.94,27.38,8.73,27.38,8.73s-33.22-21.68-49.42-22a128.42,128.42,0,0,1,3.31-15.12A30.93,30.93,0,0,0,324,572.63c12.2,2.91,16.66,6.15,22,11.2,0,0-9.25-12.21-17.89-14.94-10.11-3.19-17.3-3.5-21-6.59.88-3.13,1.84-6.09,2.83-8.87a150.9,150.9,0,0,1,19.46-37.38.69.69,0,0,0-.13-1l-.12-.07a.67.67,0,0,0-.83.2,152,152,0,0,0-19.65,37.72c-1.09,3-2.06,6.09-2.92,9.12-3,1.08-14.09,5-21.53,7.05-8.69,2.44-20.35,20.9-20.35,20.9S277.74,576.27,287.24,574.55Z"/><path class="cls-4" d="M222.18,709.57S193,601.45,214.63,533c7.36-23.22,18-38.94,28.78-49.56,22.53-22.16,60.6-12.33,69.6,18,4.32,14.53,6,33.41,1.2,57.3C300.07,629.09,222.18,709.57,222.18,709.57Z"/><path class="cls-5" d="M271.77,526.37q-1.87,7.2-3.74,14.39l41,37c-.18.55-.38,1.1-.57,1.66l-40.85-36.9q-1.77,6.81-3.53,13.61,19.31,18,40.15,34.24l-.65,1.53q-20.71-16.12-40-34-1.71,6.54-3.4,13.07l38,32.5c-.24.5-.49,1-.74,1.49L259.73,572.7q-1.78,6.85-3.56,13.7,16.43,16.7,34.19,32l-.81,1.43q-17.57-15.1-33.86-31.59-1.83,7.06-3.67,14.11,15,14.79,31.16,28.23l-.86,1.38q-16-13.25-30.76-27.81-1.5,5.76-3,11.5,13,13.89,27.16,26.55l-.9,1.36q-13.95-12.43-26.74-26.07-1.83,7-3.64,14A152.75,152.75,0,0,0,266.92,655c-.31.44-.62.88-.94,1.31a154.66,154.66,0,0,1-22-22.85c-.41,1.59-.83,3.18-1.24,4.77a.81.81,0,0,1-.22.83c-.3,1.15-.59,2.3-.89,3.45a78.94,78.94,0,0,0,19.7,20.23l-1,1.29a81,81,0,0,1-19.28-19.46l-2.73,10.51a159.78,159.78,0,0,0,15.8,17.09l-1,1.27A156.67,156.67,0,0,1,237.82,657q-1.27,4.89-2.54,9.76l11.5,10.55c.63.58,1.27,1.15,1.9,1.74l-1,1.25c-.94-.87-1.89-1.71-2.82-2.57l-10-9.2-2.14,8.26q4.29,5.57,9,10.74l-1,1.25q-4.45-4.85-8.52-10-1.26,4.81-2.51,9.64,2.78,3.36,5.86,6.45L234.46,696q-2.76-2.78-5.3-5.76-.75,2.9-1.51,5.81c1.09,1.33,2.17,2.66,3.26,4-.37.42-.73.83-1.09,1.22L227.15,698c-.75,2.89-1.5,5.79-2.26,8.68-1.74,1.88-2.71,2.88-2.71,2.88s-.35-1.31-1-3.73l2.52-9.68a37.27,37.27,0,0,1-4.16,2.79c-.12-.53-.25-1.08-.37-1.65a35,35,0,0,0,5.23-3.83c.59-2.25,1.17-4.51,1.76-6.76A55,55,0,0,1,218,692c-.12-.53-.23-1.08-.35-1.63a52.78,52.78,0,0,0,8.54-5.75.84.84,0,0,1,.56-.2q1.62-6.21,3.23-12.43-7,4.69-14.26,8.88c-.1-.56-.21-1.12-.32-1.68q7.77-4.49,15.19-9.55l2.91-11.19q-9.69,6.3-19.67,12.11l-.3-1.7q10.45-6.09,20.57-12.72l3.57-13.71Q225.16,651.2,212,659c-.08-.57-.17-1.15-.26-1.73q13.65-8.09,26.62-17.24c.79-3,1.57-6,2.35-9l-30.59,14.53-.21-1.68L241.21,629l4.56-17.53a398,398,0,0,1-37,22.74c-.06-.58-.12-1.16-.17-1.74A398.75,398.75,0,0,0,246.39,609q2.09-8,4.18-16.06l-43.35,21.61c0-.59-.06-1.17-.1-1.75l44-21.92,1.6-6.12,1.93-7.45L206.68,600l0-1.76,48.51-23q1.48-5.73,3-11.48l-51.28,18.47c0-.58,0-1.16.08-1.74L258.35,562a.93.93,0,0,1,.27,0q2.13-8.21,4.27-16.42l-55,21.53c.06-.6.12-1.2.19-1.8l55.27-21.65q1.59-6.15,3.19-12.29l-55.44,14.95c.12-.59.26-1.19.39-1.78l55.52-15q1.71-6.55,3.4-13.1A497.64,497.64,0,0,0,216.3,528c.22-.62.44-1.24.67-1.86a498.18,498.18,0,0,1,53.92-11.4q2.76-10.62,5.53-21.25-24.53,3.77-48.6,9.83.62-1,1.23-2,23.52-5.83,47.52-9.49a.81.81,0,0,1,.27,0c.78-3,1.55-6,2.33-8.94l-39.4,4.3c.55-.61,1.11-1.22,1.67-1.8l38.16-4.16c.77-3,1.53-5.9,2.3-8.85,1.22.27,2.44.6,3.64,1-.22.82-.43,1.64-.64,2.45l26.88,22c.37.95.72,1.93,1,2.92l-28.36-23.19-2.05,7.9,33.31,27.74c.13.78.24,1.58.36,2.39L282,487.21q-1.59,6.14-3.19,12.27l38.35,30.78c0,.68,0,1.37,0,2.06l-38.78-31.14-2.78,10.7c0,.1-.05.2-.08.29a505.6,505.6,0,0,0,40.89,32.7c-.06.61-.13,1.22-.21,1.84A508.56,508.56,0,0,1,275,513.92l-.36,1.38a.6.6,0,0,1-.08.29c-.77,3-1.55,6-2.33,9q19.61,20.16,41.05,38.38l-.42,1.75Q291.42,546.52,271.77,526.37Z"/><path class="cls-6" d="M58.65,735.33s29-149.15,93.4-226.2C173.92,483,195.17,467.71,213.71,459c38.65-18.24,76.64,10.59,69.45,52.73-3.44,20.21-12.43,44.78-31.74,72.87C194.52,667.33,58.65,735.33,58.65,735.33Z"/><path class="cls-7" d="M221.44,525.4,208.83,542l25.59,64.41-1.61,1.84L207.28,544l-11.92,15.65q11.74,31.07,26.26,60.58L220,621.85q-14.44-29.28-26.19-60.18l-11.45,15,24.84,57.46c-.56.53-1.13,1.05-1.7,1.57l-24.66-57-12,15.77q9.21,28.15,20.74,55.14l-1.75,1.45q-11.41-26.65-20.58-54.5l-12.36,16.23q8.61,25.13,19.41,49.1l-1.78,1.37q-10.66-23.61-19.21-48.39-5,6.6-10.07,13.22,6.84,23.14,15.8,45.26l-1.82,1.32q-8.81-21.72-15.6-44.46l-12.27,16.12a183.39,183.39,0,0,0,12.2,39.37c-.62.41-1.23.83-1.84,1.25a185.38,185.38,0,0,1-12.07-38.38l-4.19,5.49a1.28,1.28,0,0,1-.72,1l-3,4a94.64,94.64,0,0,0,10.91,34l-1.85,1.22a96.75,96.75,0,0,1-10.86-32.89q-4.61,6-9.2,12.08a190.49,190.49,0,0,0,8.24,28.4L115.05,703a189.61,189.61,0,0,1-8-27.37q-4.29,5.61-8.56,11.23l7.1,18.27c.39,1,.79,2,1.17,3l-1.87,1.14c-.57-1.5-1.18-3-1.75-4.46q-3.11-8-6.2-16l-7.23,9.5q1.71,8.9,4.18,17.48L91.92,717q-2.31-8-4-16.34L79.5,711.77q1.25,5.44,3,10.67l-1.92,1.08Q79,718.84,77.82,714l-5.09,6.69c.48,2.15,1,4.29,1.43,6.44l-2,1.06L71,722.87l-7.61,10c-3.08,1.62-4.78,2.47-4.78,2.47s.35-1.81,1.06-5.13l8.49-11.14a49.61,49.61,0,0,1-6.39,1.73c.17-.72.34-1.47.52-2.24A48.16,48.16,0,0,0,70.55,716q3-3.88,5.92-7.78a74.78,74.78,0,0,1-12.42,3.18c.18-.73.36-1.47.55-2.22a70.87,70.87,0,0,0,13.12-3.58,1,1,0,0,1,.75,0l10.9-14.31q-10.71,2.93-21.49,5.06l.6-2.25q11.51-2.33,23-5.51l9.8-12.87q-14.76,3.76-29.57,6.79c.22-.75.43-1.5.65-2.27q15.5-3.18,31-7.18l12-15.78q-19.45,5.67-39.09,9.8l.7-2.29q20.34-4.34,40.51-10.29l7.92-10.4-43.49,5.15c.24-.74.48-1.48.73-2.22l44.54-5.27,15.36-20.16a532.94,532.94,0,0,1-55.56,12.75c.26-.75.53-1.51.8-2.27a532.64,532.64,0,0,0,56.86-13.25l14.07-18.47L96.41,608.9c.3-.75.6-1.5.91-2.25L160.43,598l5.36-7.05,6.53-8.56-68.12,7.94,1-2.24,68.9-8,10.07-13.22-69.5,1.2c.36-.73.73-1.45,1.09-2.17l69.68-1.19a.82.82,0,0,1,.33.05l14.39-18.88-75.49,3.46,1.26-2.19,75.91-3.48,10.78-14.15-72.25-5.05c.49-.7,1-1.39,1.48-2.08l72.34,5.06,11.47-15.06a574.55,574.55,0,0,0-68.81-8.76l1.85-2.06a577,577,0,0,1,68.44,8.87q9.31-12.21,18.62-24.44a610.59,610.59,0,0,0-61.42-8.56c.85-.67,1.7-1.33,2.55-2q30.36,2.79,60,8.52a1,1,0,0,1,.31.12L255,473.76l-47.68-11.58c1-.53,2-1.05,3-1.55l46.17,11.21,7.75-10.17a42.42,42.42,0,0,1,3.6,2.81l-2.14,2.82,18.12,39.37c-.12,1.36-.29,2.74-.51,4.13l-19.11-41.53-6.93,9.09,22.17,49.4c-.31,1-.63,2.11-1,3.18l-22.71-50.6q-5.37,7.07-10.75,14.11l26.19,55.43c-.39.86-.79,1.72-1.19,2.59l-26.49-56.06q-4.68,6.16-9.37,12.31l-.26.34a573.45,573.45,0,0,0,28,58.94l-1.3,2.23a578.64,578.64,0,0,1-28.24-59.16l-1.2,1.59a1.37,1.37,0,0,1-.25.33L223,523.3a692.93,692.93,0,0,0,24.9,66.18l-1.5,2A688.46,688.46,0,0,1,221.44,525.4Z"/><path class="cls-4" d="M450.09,155.1s32.5,112.09,11.21,183.8c-7.23,24.33-18,40.9-29,52.17-23.06,23.51-62.91,14-72.86-17.39-4.77-15.05-6.88-34.7-2.33-59.67C370.46,240.42,450.09,155.1,450.09,155.1Z"/><path class="cls-5" d="M401.89,346.9l3.63-15.06-43.38-37.77.57-1.74L406,330q1.71-7.12,3.43-14.24-20.46-18.39-42.48-34.92l.64-1.6q21.9,16.39,42.29,34.66,1.64-6.84,3.29-13.68l-40.25-33.14c.24-.52.49-1.05.74-1.57l39.94,32.9q1.74-7.17,3.46-14.34Q399.58,267,380.79,251.4l.81-1.5q18.58,15.39,35.87,32.26,1.78-7.38,3.56-14.77-15.87-15.12-33-28.82l.87-1.45q16.88,13.49,32.57,28.39,1.45-6,2.9-12-13.78-14.23-28.81-27.16c.31-.47.61-.95.92-1.43q14.76,12.69,28.35,26.66,1.77-7.34,3.53-14.67a159.58,159.58,0,0,0-23.86-24l.95-1.38a160.68,160.68,0,0,1,23.4,23.39c.4-1.66.81-3.33,1.21-5a.86.86,0,0,1,.2-.87l.87-3.62a82.57,82.57,0,0,0-20.9-20.7l1-1.36a84.45,84.45,0,0,1,20.45,19.91q1.33-5.51,2.65-11a164.4,164.4,0,0,0-16.79-17.51l1-1.35a164.65,164.65,0,0,1,16.25,16.84L437.25,200l-12.17-10.76-2-1.78q.51-.67,1-1.32c1,.88,2,1.74,3,2.61l10.63,9.4c.69-2.88,1.39-5.76,2.08-8.64q-4.59-5.73-9.64-11l1.06-1.32q4.74,5,9.07,10.28l2.43-10.08q-3-3.45-6.23-6.61l1.09-1.29c1.95,1.89,3.83,3.85,5.62,5.9l1.47-6.08-3.47-4.1,1.11-1.28,2.84,3.36,2.19-9.09c1.78-2,2.77-3.06,2.77-3.06s.4,1.36,1.07,3.88q-1.21,5.06-2.44,10.13a39.09,39.09,0,0,1,4.28-3q.21.82.42,1.71a36.35,36.35,0,0,0-5.38,4.09q-.84,3.54-1.7,7.08a57.35,57.35,0,0,1,8.4-5.68c.13.55.26,1.12.39,1.69a56.27,56.27,0,0,0-8.79,6.16.78.78,0,0,1-.57.21q-1.57,6.51-3.14,13,7.19-5,14.69-9.52c.12.57.25,1.15.37,1.74q-8,4.83-15.65,10.24l-2.82,11.71q10-6.75,20.27-13c.12.58.23,1.16.34,1.76q-10.77,6.54-21.19,13.64l-3.45,14.35q12.9-9.37,26.49-17.73c.11.59.21,1.19.31,1.79q-14.07,8.68-27.41,18.47l-2.28,9.46,31.6-15.72c.08.58.17,1.17.25,1.75l-32.36,16.1q-2.21,9.18-4.42,18.35a417.2,417.2,0,0,1,38.1-24.4l.21,1.82a416.41,416.41,0,0,0-38.91,25.09l-4,16.8,44.76-23.32c0,.61.09,1.21.13,1.82L422.2,279.29l-1.54,6.4c-.62,2.6-1.25,5.2-1.87,7.8L468.32,269l.06,1.84-50.1,24.82q-1.45,6-2.9,12l53.08-20.22c0,.61,0,1.21,0,1.82L415.2,309.5a1,1,0,0,1-.28.05q-2.07,8.59-4.13,17.18l56.85-23.47c-.06.63-.11,1.26-.17,1.88l-57.17,23.6q-1.55,6.43-3.1,12.87L464.69,325c-.13.62-.25,1.24-.38,1.85L406.75,343.5l-3.3,13.7a514.58,514.58,0,0,0,56.2-13.09q-.33,1-.66,1.95A515.42,515.42,0,0,1,403,359q-2.68,11.11-5.35,22.23,25.47-4.38,50.44-11.15c-.41.7-.83,1.39-1.24,2.08q-24.4,6.53-49.33,10.79a.71.71,0,0,1-.29,0L395,392.28l41-5.22c-.57.65-1.14,1.28-1.72,1.9L394.59,394c-.74,3.09-1.49,6.18-2.23,9.26-1.28-.26-2.55-.58-3.81-.95.21-.86.42-1.71.62-2.57l-28.42-22.4c-.41-1-.78-2-1.13-3l30,23.63q1-4.14,2-8.28l-35.22-28.26q-.22-1.23-.42-2.49L392,387.89l3.09-12.83-40.54-31.35,0-2.14,41,31.7q1.35-5.59,2.69-11.2c0-.1.05-.2.08-.31a529.15,529.15,0,0,0-43.22-33.29l.18-1.91a530.14,530.14,0,0,1,43.48,33.37c.11-.48.23-1,.34-1.44a.79.79,0,0,1,.08-.3l2.25-9.38q-20.79-20.62-43.48-39.2c.13-.62.26-1.23.4-1.84Q381,326.28,401.89,346.9Z"/><path class="cls-10" d="M517.16,228.62c-17.31,21.12-15.28,67.67-8.21,72.86s9.88-64.51,22.55-73.31,41.32-8.85,41.32-8.85c-7.63,4.32-23.36,42.89-16,51.13s7.48-23.86,22-42.53S654,225.84,654,225.84s-9.83,19.39-1.94,40.25,24.64,59.13,1.06,76.82c-18.14,13.6-71.39-17.6-68.41-12.87S631,366.83,655.18,353.5c0,0-19.54,59.18-54,54.54s-63.55-26.31-63.55-18.93,48.5,33.89,80,22.29c0,0-53.49,77.1-108.54,53.89s-36-78.69-36-78.69c-58.71-5.19-71.61-46.47-56.51-85.39C430,266.69,517.16,228.62,517.16,228.62ZM595.07,370.4c1.26,1.71,7,7.51,9.54,8.72,3.37,1.62,5.67-.9,4.64-4.13-1.44-4.55-3.23-8.67-7.38-8.31S593.82,368.7,595.07,370.4Zm-78.93,28.08c6.19,7.84,21.64,24.36,27.84,25.28,4.58.67,7.26-3.87,7.38-5,.57-5.45-2.44-9.68-11.4-14.29s-18.12-19.81-21.56-19.06S510,390.65,516.14,398.48Zm42.63-57.38c-.51,4,11.47,14.6,15.29,17.2,5.47,3.73,11.18,13.16,14.78,5.09,2.16-4.87-6-11.9-14.15-15.92S559.28,337.06,558.77,341.1Zm31.13-72.9c2.11-2.32,3.46-5.67,3.29-11-.33-10.48-2.5-17.53-6.3-10.56s-9.12,16-8.2,19.06l0,.1A6.62,6.62,0,0,0,589.9,268.2Zm-113.19,56c9.65,19.52,15,35.52,20.45,23,0,0,3.39-5.71-2.94-15.86s-3.89-16.94-8.62-23.12S467.07,304.73,476.71,324.24ZM466,291.43c5.61,7,6.57,11.27,10.16,9.25a6.62,6.62,0,0,0,3.26-6c-.16-4.72-2.92-9.25-4.66-11.42C472.35,280.2,459,282.66,466,291.43Z"/><path class="cls-9" d="M550.81,420.12c3.38,2.17,6.76,4.25,10.09,6.26,1.59,1,0,3.37-1.56,2.41-3.44-2.07-6.94-4.23-10.42-6.48A8.79,8.79,0,0,0,550.81,420.12Z"/><path class="cls-9" d="M503.47,365.75c0-.15-.05-.29-.07-.44a1.42,1.42,0,0,1,0-.51q-4.53-6.82-8.52-13.95a9.3,9.3,0,0,0,1.8-2.61q4.38,8,9.45,15.53c4.39-3.26,8.7-6.59,12.87-10,9.6-8,18.66-16.46,27.42-25.27a92.7,92.7,0,0,1-6.14-73.32A1.44,1.44,0,0,1,543,256a89.84,89.84,0,0,0,5.54,70.28c10.87-11,21.32-22.52,31.82-33.94a80.18,80.18,0,0,1,1.6-22.74,6.66,6.66,0,0,0,2.76.72,75.88,75.88,0,0,0-1.67,19.1c8.75-9.48,17.57-18.89,26.73-27.94,13.31-13.14,27.44-25.48,42.87-36l1.35.35s-.57,1.12-1.31,3.08c-25.48,17.7-47.1,40.31-68.15,63.13a80.59,80.59,0,0,0,38.76,1.42,1.44,1.44,0,0,1,.56,2.82,83.58,83.58,0,0,1-41.34-1.83l-.15-.06L572.65,305C559,319.85,545.06,334.61,530,348.08a122.1,122.1,0,0,0,57.14,31c1.81.42.9,3.15-.89,2.74A124.94,124.94,0,0,1,527.82,350l-.31.28c-6.73,5.89-13.76,11.37-20.92,16.67a57,57,0,0,0,8.26,20.54,5.86,5.86,0,0,0-1.52,2.92,60.13,60.13,0,0,1-9.3-21.57c-9.43,6.88-19.06,13.5-28.56,20.31q-1.87,1.33-3.73,2.7c.44-2,.86-3.55,1.12-4.41C483,380.13,493.42,373.1,503.47,365.75Z"/><path class="cls-9" d="M476.18,300.68a6.45,6.45,0,0,0,1.21-.9q.74,2.79,1.54,5.56a5.85,5.85,0,0,0-2.71,1c-.5-1.7-1-3.41-1.43-5.13A3.61,3.61,0,0,0,476.18,300.68Z"/><path class="cls-9" d="M597.41,241.87a76.41,76.41,0,0,0-4.89,7.75,18.28,18.28,0,0,0-1-4q1.65-2.73,3.51-5.34C596.07,238.81,598.49,240.37,597.41,241.87Z"/><path class="cls-8" d="M143.88,427.29c.55,4-32.19-18.87-47.52-15.24s-28.71,39.08-28.71,39.08c11.31-7,48.06-6.18,46.76-2.07S76.25,453.7,67.3,460s-5.43,35.66-5.43,35.66c4.41-8.68,39.39-18.71,42.3-15.34S82.44,489.4,69,499,75,553.92,75,553.92s8.83-6.75,15.85-4.57,26.61,13.76,38.77-5.31,6.44-37,11.13-36.72,1.14,32.58-7.52,43.2c0,0,18.54,0,29.12-11s4.91-51.69,7.58-54,21,27.38,5.31,49.2c0,0,17.31-5.7,36.27-28.62,18.56-22.45,20.66-46.43,3.24-62-17.18-15.39-33.38-6.38-33.38-6.38,19.38-43.17-6-64-34.36-61.65-18.95,1.59-50.18,29-50.18,29C115.29,402.17,143.34,423.25,143.88,427.29Zm-32.31,7.51c-3.18-1.71-3.61-6.48.44-6.66s8.49,4.24,6.48,7.39S111.57,434.8,111.57,434.8Zm81.48,43.85c3.28,5.87,7.88,9.49,6.39,16.58a6.54,6.54,0,0,1-6,5.61c-4.17-1.12-5.83-6.39-7.06-12.06-1.27-5.86-4.84-9.68-3.06-12.06C185.81,473.35,189.78,472.79,193.05,478.65Zm-33.24,28.08c-2.44,5.16-6.24,5.2-6.26,2.19s-2.59-18.5-1.14-22.15,4.36-5.91,7.32-1C162.37,490.09,162.24,501.58,159.81,506.73Zm15.6-46.05c2.54.7,8.48,4.09,7.79,7.12s-3.48,4.62-5.65,3.28c-1.76-1.07-4.21-2.06-4.2-5S172.88,460,175.41,460.68Zm-63.14,10.8c-3,2.53-16.45-.57-16.45-.57A16.19,16.19,0,0,1,90,468.4c-3.61-2.23,8.14-3.49,15.54-3.08S115.29,469,112.27,471.48ZM143.69,448c-2.22,4-19.7-7.43-19.7-7.43-2.6-1.62,1.57-6.34,7.08-4.12S145.91,444,143.69,448Z"/><path class="cls-11" d="M90,468.4a1.38,1.38,0,0,1-.65-.66,104.37,104.37,0,0,0-18.29,3.43,1,1,0,0,0,.57,1.86,104,104,0,0,1,20.25-3.56C91.31,469.18,90.68,468.83,90,468.4Z"/><path class="cls-11" d="M124.56,437q-2.81-1.25-5.67-2.37a3.15,3.15,0,0,1-.4.93,2.58,2.58,0,0,1-.68.74c1.85.72,3.69,1.49,5.51,2.29A3.49,3.49,0,0,1,124.56,437Z"/><path class="cls-11" d="M96.61,430q6.83,1.46,13.44,3.57a4.36,4.36,0,0,1-1-2.35q-6-1.83-12.07-3.13A1,1,0,0,0,96.61,430Z"/><path class="cls-11" d="M193.41,500.84h0a72.78,72.78,0,0,1,.76,7.24,1,1,0,0,0,2-.08c-.15-2.55-.42-5.07-.81-7.58A6,6,0,0,1,193.41,500.84Z"/><path class="cls-11" d="M182.57,434.82l-11.37,9.83A56.64,56.64,0,0,0,145,404.72c-1.07-.66-2,1.08-.89,1.74a54.52,54.52,0,0,1,25.36,39.71L156.84,457a137.93,137.93,0,0,0-13-9.55,2.29,2.29,0,0,1-.2.46,1.72,1.72,0,0,1-1.4.81,137.73,137.73,0,0,1,13.05,9.57l-6.18,5.33a.93.93,0,0,0-.47.4l-11,9.46A115.75,115.75,0,0,0,113.1,468a2.1,2.1,0,0,1,.32,2A114.28,114.28,0,0,1,136,475l-4.9,4.17a136,136,0,0,0-14.68,15.45c-10.56-2-20.35,3.66-29,9a1,1,0,0,0,1,1.66c8-4.92,16.92-10.25,26.57-8.93-15.53,18.79-33,44.52-40.64,55.93.42,1,.67,1.63.67,1.63l.13-.1h0l.15-.12h0c.32-.23.89-.62,1.65-1.09,7.83-11.7,24.64-36.25,39.5-54.33a39.67,39.67,0,0,1-3,28.53,1,1,0,0,0,1.74.89,41.69,41.69,0,0,0,3-30.72.88.88,0,0,0-.25-.42A135.16,135.16,0,0,1,132.58,481c4.28-3.64,10.14-8.66,16.73-14.33a114.08,114.08,0,0,1,4.59,17.57,3.54,3.54,0,0,1,1.77-1.21,115.09,115.09,0,0,0-4.78-17.72l14.92-12.86a77.55,77.55,0,0,1,8.57,8.23,1.85,1.85,0,0,1,1,.05,13.32,13.32,0,0,1,2.48,1,78.5,78.5,0,0,0-10.58-10.6l16.87-14.58h0a18.82,18.82,0,0,0-2.83,1.17h0c.24-.52.46-1,.69-1.57Z"/><path class="cls-11" d="M181.82,470.4q1.53,2.37,2.88,4.85a5.17,5.17,0,0,1,1.74-.9c-1.08-2-2.24-3.9-3.48-5.77A5.14,5.14,0,0,1,181.82,470.4Z"/><path class="cls-11" d="M157.46,510a3.77,3.77,0,0,1-2,.95,113.14,113.14,0,0,1-2.67,18.55,1,1,0,0,0,1.91.41A114.55,114.55,0,0,0,157.46,510Z"/><path class="cls-3" d="M338.41,274.31l-.27-.34,0-.05-.24-.34,0,0c-.09-.11-.17-.23-.25-.35l-.05-.07c-.08-.12-.16-.24-.23-.36l0-.06-.23-.37h0l-.22-.38,0-.06c-.07-.12-.14-.24-.2-.37l0-.06-.19-.38v0a3.26,3.26,0,0,1-.18-.38l0-.05-.16-.37,0-.07c-.06-.12-.11-.25-.16-.37v0c-.06-.13-.1-.25-.15-.38v0c-.05-.13-.09-.26-.14-.38v-.06c-.05-.12-.09-.25-.13-.37v-.05c-.08-.26-.15-.51-.22-.77v0c0-.12-.06-.25-.08-.37v0a7,7,0,0,1-.14-.75v0c0-.13,0-.25,0-.37v0c0-.12,0-.24,0-.36h0c0-.25,0-.48,0-.72v0a1.93,1.93,0,0,1,0-.34h0a4.63,4.63,0,0,1,0-.65v0c0-.1,0-.2,0-.3v0a4.69,4.69,0,0,1,.2-.86h0a4.46,4.46,0,0,1,.32-.73h0a2.39,2.39,0,0,1,.13-.21h0a2.89,2.89,0,0,1,.31-.37h0l.18-.15h0c.82-.67,2-.76,3.65,0,7.4,3.5,10,13.69,10.72,17.51q.92-2.29,1.91-4.55l1.38-3.07.65-1.43c1.73-3.76,3.51-7.51,5.19-11.3h-.19l-.5-.05-.29,0-.45-.06-.3,0-.42-.07-.31-.06-.4-.08-.3-.07-.4-.1-.28-.08-.4-.11-.27-.08-.4-.14-.24-.08-.45-.17-.18-.07c-.21-.09-.42-.17-.62-.27h0l-.56-.27-.18-.09-.4-.2-.21-.12-.35-.2-.22-.13-.33-.2-.22-.15-.31-.2-.22-.15-.3-.22-.2-.15-.3-.23-.19-.15-.31-.26-.16-.14-.35-.3-.11-.1-.44-.42s0,0-.05,0l-.37-.38-.13-.14-.27-.29-.15-.17-.23-.27-.16-.18-.21-.27-.15-.19-.2-.27-.15-.19-.19-.27-.13-.2-.19-.27-.12-.19-.18-.29a1.74,1.74,0,0,1-.11-.18c-.07-.11-.13-.22-.19-.33a.64.64,0,0,1-.08-.14l-.26-.46-.07-.16c-.06-.1-.11-.21-.16-.31a1.24,1.24,0,0,0-.1-.2l-.12-.27-.09-.22a1.89,1.89,0,0,1-.11-.25l-.09-.22-.09-.24-.09-.23c0-.07-.05-.15-.08-.23s-.05-.15-.07-.23a1.87,1.87,0,0,1-.07-.22c0-.08-.05-.16-.07-.23l-.06-.22c0-.08-.05-.15-.07-.23s0-.14,0-.2l-.06-.24,0-.18a7.65,7.65,0,0,1-.15-.92c0-.05,0-.1,0-.15s0-.16,0-.24,0-.11,0-.16,0-.16,0-.24v-.53c0-.07,0-.15,0-.22s0-.09,0-.14a1.8,1.8,0,0,0,0-.22.59.59,0,0,0,0-.13l0-.22,0-.11c0-.07,0-.14,0-.22l0-.08.06-.23h0a4.25,4.25,0,0,1,.33-.75l0,0,.11-.17a.43.43,0,0,0,0-.07l.12-.15.06-.07a1.59,1.59,0,0,1,.13-.13l.07-.06a.74.74,0,0,1,.13-.12l.08-.06.14-.1.09-.05.16-.09.08,0,.18-.08.07,0a4,4,0,0,1,2.37,0c7.69,2,11.92,14.74,13.06,18.73,1.14-2.62,2.23-5.26,3.2-7.95h0l0-.11.09-.24h0l.55-1.55a85.13,85.13,0,0,0,2.79-10.42l-1.6-.45-.2-.07-.9-.29-.23-.09-.54-.19-.4-.15-.32-.12c-.35-.14-.71-.28-1.07-.44l-.56-.25a26.66,26.66,0,0,1-7.11-4.51h0l-.31-.29-.1-.09-.23-.22-.08-.08-.29-.3-.05,0-.23-.25-.08-.09-.22-.24-.06-.07-.25-.3-.06-.07-.19-.23-.07-.09-.22-.28v0l-.22-.3-.06-.08-.16-.24-.05-.07-.2-.3h0l-.18-.28,0-.08-.14-.24,0-.05-.15-.3,0,0-.12-.26,0-.06c0-.09-.09-.18-.12-.27h0c0-.1-.08-.19-.11-.29l0,0c0-.09-.05-.17-.08-.25l0,0c-.05-.19-.1-.37-.14-.54v0c0-.08,0-.16-.05-.23v0a2.83,2.83,0,0,1,0-.5v0a2.43,2.43,0,0,1,0-.47h0a1.52,1.52,0,0,1,0-.21v0a2.8,2.8,0,0,1,.13-.41h0l.09-.17h0a1.5,1.5,0,0,1,.23-.33h0c.75-.82,2.3-1,4.82-.33,6,1.7,10.66,10.89,12.29,14.5a85.06,85.06,0,0,0,1.22-9.68l.1-1.9q0-.94.06-1.89c.06-2.52,0-5-.18-7.54l-.41-.06-.25,0-.56-.09-2.22-.41-.92-.18-.48-.09c-1.67-.35-3.68-.79-6-1.38l-.33-.08-.11,0-.22-.06-.13,0-.2-.06-.13,0-.2-.06-.13-.05-.19-.07-.13-.05-.19-.08-.13-.05-.2-.09-.11,0-.25-.11-.06,0-.31-.14-.08-.05a1.51,1.51,0,0,1-.22-.11l-.11-.06-.19-.1-.12-.07-.17-.09-.12-.07-.17-.1-.12-.08-.16-.1-.12-.08-.17-.1-.11-.08-.17-.12-.1-.07-.26-.18-.08-.07-.18-.13-.11-.09-.14-.11-.12-.09a.69.69,0,0,0-.13-.11.52.52,0,0,0-.11-.1l-.12-.11-.12-.1-.12-.11-.11-.1-.11-.11-.12-.11-.1-.1-.11-.12-.1-.1-.23-.25-.07-.08-.11-.13-.08-.09-.11-.13-.08-.09-.1-.14-.07-.09a1.13,1.13,0,0,1-.1-.13l-.07-.09a.71.71,0,0,0-.1-.14l-.06-.09-.09-.14a.35.35,0,0,1-.05-.08l-.1-.15,0-.05c-.12-.19-.23-.39-.33-.59v0l-.08-.17,0-.06a1.22,1.22,0,0,1-.07-.17l0-.06-.07-.16,0-.07-.06-.16,0-.07-.06-.16v-.05a1.21,1.21,0,0,1-.05-.18v0a6.12,6.12,0,0,1-.14-.82v0c0-.06,0-.11,0-.17v-.26a1,1,0,0,1,0-.17v0c0-.06,0-.11,0-.17v0l0-.17v0a3.53,3.53,0,0,1,.24-.76h0c0-.06.05-.11.07-.16l0,0a.64.64,0,0,1,.08-.14l0-.05.09-.14,0,0,.1-.14,0,0a1.34,1.34,0,0,1,.11-.14l0,0a4.93,4.93,0,0,1,1.69-1.25c6.82-3.29,15.19,9.23,17.9,13.69a83.18,83.18,0,0,0-1.94-12l0,0-.35-1.47q-.9-3.48-2.1-6.86l-.06,0-.42-.19-.05,0a3.84,3.84,0,0,1-.4-.21l0,0-.4-.23-.07,0-.39-.24-.07-.05a4.56,4.56,0,0,1-.39-.27h0l-.37-.28-.06-.05-.36-.29-.07-.06-.35-.31-.05,0-.34-.32,0,0c-.12-.11-.23-.22-.34-.34l-.06-.06-.32-.34-.06-.07c-.11-.12-.22-.24-.32-.37l0,0c-.11-.12-.21-.25-.31-.37l0-.05c-.1-.13-.2-.25-.29-.38l-.06-.08c-.1-.12-.19-.25-.28-.38l-.05-.06-.27-.4,0,0-.27-.42-.05-.07-.25-.41,0-.08-.25-.42,0,0-.24-.41,0-.06-.22-.43,0-.08-.21-.43,0-.08-.21-.45h0l-.21-.46,0-.07-.18-.44,0-.09-.18-.45,0,0c-.05-.14-.11-.29-.16-.44l0,0c-.05-.16-.1-.31-.16-.46l0-.08-.15-.44,0-.08c-.05-.15-.1-.3-.14-.46h0c-.05-.16-.09-.31-.13-.46l0-.07-.12-.44,0-.08c0-.14-.07-.29-.1-.44v0c0-.15-.07-.29-.1-.44v0c0-.14-.06-.29-.09-.43v-.08c0-.14,0-.28-.08-.42v-.07l-.06-.43h0c0-.14,0-.28-.05-.42v-.06c0-.13,0-.27,0-.4V176l0-.4v0c0-.13,0-.26,0-.39h0c0-.14,0-.27,0-.39v-.06c0-.13,0-.25,0-.37v-.05c0-.13,0-.25,0-.37v0c0-.12,0-.23,0-.35v0c0-.12,0-.23,0-.34v0c0-.11,0-.22.05-.32v0c0-.21.09-.42.14-.62v0c0-.09.05-.18.08-.27l0,0a2,2,0,0,1,.1-.26v0a2.72,2.72,0,0,0,.11-.25h0l.12-.23,0,0,.14-.21v0a2.22,2.22,0,0,1,.32-.36v0l.17-.15,0,0,.18-.12h0a1.24,1.24,0,0,1,.2-.1h0l.21-.08h0l.21,0h0a1,1,0,0,1,.24,0h0a5.45,5.45,0,0,1,3.52,1.5c8.34,6.51,6.63,17.12,5.72,20.78.83,2.31,1.56,4.66,2.18,7l.33,1.33a84.18,84.18,0,0,1,2.07,12.43c1.53-4.87,6-16.73,13-16.88,1.87,0,3.09.47,3.79,1.34h0a3.39,3.39,0,0,1,.48.85h0a3.63,3.63,0,0,1,.22,1h0a5.35,5.35,0,0,1,0,1.13v0l0,.23h0a7.28,7.28,0,0,1-.2,1v0a1.87,1.87,0,0,1-.07.22v0c-.07.24-.15.49-.25.74v0c0,.07-.05.14-.08.22l0,.07-.09.21,0,.07c-.1.23-.21.47-.33.7l0,.08a1.74,1.74,0,0,1-.1.19l-.05.11a1.74,1.74,0,0,0-.1.19l-.07.11-.1.19-.06.09c-.06.12-.13.23-.2.35a.57.57,0,0,0-.08.13l-.11.16-.09.14c0,.06-.07.11-.1.16l-.1.15-.11.15-.15.22-.13.18-.13.18-.1.13-.13.17-.1.13-.14.18-.1.11a3.11,3.11,0,0,1-.23.28l-.06.07L383,208l-.09.1-.17.18-.1.11-.17.18-.09.1c-.09.09-.17.18-.26.26l0,0-.23.23-.1.09-.19.17-.1.09-.19.18-.09.08-.29.24,0,0-.27.22-.09.07-.21.16-.1.08-.21.15-.09.07-.31.21h0l-.29.19-.1.07-.22.13-.11.07-.21.12-.1.06-.32.17c-1.6.84-3,1.46-4.1,1.92-.32.13-.63.25-.92.35s-.56.2-.82.28-.73.22-1.05.3l-.3.07a8.64,8.64,0,0,1-1,.18l-.19,0-.29,0q.26,3.81.17,7.64l-.06,2a85.22,85.22,0,0,1-1.21,10.92c3-4.31,12.06-16.25,18.1-11.93a7,7,0,0,1,.71.56h0l.16.14h0l.15.13h0l.13.14h0l.12.13v0l.12.13v0a1.47,1.47,0,0,1,.1.13l0,0,.09.13h0l.09.13v0l.08.13v0a.83.83,0,0,1,.07.13v0a.83.83,0,0,1,.07.13v0l.06.13v0a.5.5,0,0,1,.05.13v0a.56.56,0,0,1,0,.12v0s0,.09,0,.13v0l0,.13v0a.59.59,0,0,0,0,.13v0s0,.09,0,.13v0a.57.57,0,0,1,0,.13h0c0,.05,0,.09,0,.14h0c0,.05,0,.09,0,.14h0a.71.71,0,0,1,0,.14h0c0,.05,0,.1,0,.15h0a5.74,5.74,0,0,1-2.12,3.28h0l-.15.13h0l-.15.13h0l-.16.12h0l-.15.12,0,0-.16.11,0,0-.15.11,0,0a.91.91,0,0,1-.16.11l0,0-.15.11,0,0-.15.11,0,0-.16.11,0,0-.16.1,0,0-.16.1,0,0-.16.1,0,0-.16.09-.05,0-.16.1-.05,0-.17.1-.05,0-.17.09-.05,0-.17.09-.06,0-.17.09,0,0-.18.09-.05,0-.18.08-.05,0-.18.09-.06,0-.18.09-.06,0-.18.08-.06,0-.18.08-.06,0-.19.09-.05,0-.19.08-.05,0-.2.08-.05,0-.2.08,0,0-.21.09h0l-.23.1h0c-.59.23-1.19.45-1.8.65h0l-.21.07-.05,0-.2.06-.07,0-.18.06-.09,0-.17,0-.1,0-.16.05-.1,0-.17,0-.1,0-.16,0-.11,0-.16,0-.11,0-.16,0-.11,0-.15,0-.12,0-.15,0-.13,0-.14,0-.13,0-.14,0-.13,0-.13,0-.14,0-.13,0-.14,0-.13,0-.13,0-.14,0-.13,0-.14,0-.13,0-.13,0-.14,0-.13,0-.13,0-.13,0-.14,0-.13,0-.13,0-.13,0-.13,0-.13,0-.13,0-.13,0-.13,0h-.13l-.13,0-.12,0h-.13l-.13,0h-.25l-.13,0h-2.45c-.51,2.62-1.15,5.22-1.91,7.78-.21.72-.44,1.44-.67,2.15l-.44,1.32c-1,2.79-2,5.53-3.19,8.24,3.27-3.48,10.85-9.9,19.93-6.55a6.26,6.26,0,0,1,3.3,2.2h0a2.25,2.25,0,0,1,.12.21h0l.09.22h0a2.46,2.46,0,0,1,.08.46h0v.24l0,.22h0a2.37,2.37,0,0,1-.24.69h0a2.53,2.53,0,0,1-.13.22h0a4.66,4.66,0,0,1-.54.67h0l-.22.22h0a8.84,8.84,0,0,1-.79.65h0l-.29.21h0a3.28,3.28,0,0,1-.31.2h0c-.22.14-.45.27-.7.4l0,0-.36.18,0,0-.37.18,0,0-.81.36h0l-.41.17-.05,0-.41.16-.05,0c-.29.11-.59.22-.9.32h0l-.45.14-.06,0-.45.14-.06,0-.48.13h0l-.49.13h0l-.48.12-.07,0-.48.11-.08,0-.49.1H375l-.51.1h0l-.51.09h-.08l-.5.08h-.09l-.5.07h-.07l-.52.07h0l-.53.05h-.08l-.51.05H371l-.51,0h-.08l-.53,0h0l-.52,0h-1.85l-.51,0h-.06l-.51,0h-.1l-.5-.05h-.09l-.51-.06h-.05l-.5-.07h0l-.51-.09H364l-.49-.09-.09,0-.48-.11h-.06l-.49-.12h0l-.49-.13-.07,0-.46-.14-.09,0-.25-.09c-1.78,4.05-3.68,8.05-5.52,12.07l-.86,1.89c-1,2.24-2,4.48-2.9,6.75,4.48-2,18.46-7.94,22.91-5.13a3.28,3.28,0,0,1,1.7,3.31v.05a4.27,4.27,0,0,1-.15.67v0a7.23,7.23,0,0,1-.26.68l0,.05-.17.34h0c-.06.11-.12.22-.19.33l0,.05-.22.33,0,0-.24.31,0,0-.27.33,0,0a3.65,3.65,0,0,1-.27.3l0,0-.31.31-.05.05-.31.29,0,0-.35.3-.07.05-.35.27,0,0-.38.27-.08,0q-.39.27-.81.51l-.09,0-.42.23,0,0-.41.2-.1,0-.44.2-.06,0-.41.17-.1,0-.46.16-.08,0-.41.12-.1,0-.47.13-.1,0c-.14,0-.28.07-.43.09l-.09,0-.48.09h-.11l-.45.06h-.07l-.5,0h-1.25l-.52,0h0a29.4,29.4,0,0,1-11.31-3.5c-.62-.35-1.12-.66-1.5-.92a89.66,89.66,0,0,0-3.7,11.47h0v.07a1.24,1.24,0,0,0,0,.16h0l-.29,1.29h0l-.06.28v.05h0c-.19.86-.36,1.73-.51,2.6a72.55,72.55,0,0,0,1.55,31.61c.27,1-1.26,1.27-1.53.29a73.56,73.56,0,0,1-2.15-28c.25-2.15.61-4.27,1.05-6.38l.38-1.66a94.52,94.52,0,0,1,3.88-12.31l-.43,0h-.1l-.55-.05h-.05l-.51-.08H348l-.51-.1-.11,0-.5-.11-.07,0-.48-.13h-.05l-.49-.15-.09,0-.46-.16-.09,0-.47-.18h0l-.46-.2-.08,0-.43-.2-.09-.05-.42-.22-.05,0-.39-.22-.07,0-.39-.25-.09-.05-.38-.26-.06,0-.36-.26,0,0-.37-.29-.07-.06-.35-.28-.06-.06-.34-.3h0l-.33-.32-.07-.06-.31-.31-.06-.07-.31-.33,0,0-.28-.32-.05-.06-.28-.33Z"/><path class="cls-12" d="M100.22,256.46c17.85,7.34,25.87,27.69,32,46l42.27,125.43a115,115,0,0,0,26.82,2.44c12.57,27.28,44.68,38,70.85,52.79C342.84,522.9,379.53,602.25,413.35,676c6,13,12.46,26.6,24,35.07,6.53,4.78,14.32,7.63,20.78,12.49,14.1,10.63,19.68,28.87,24.44,45.88l25.62,91.48c10.61-19.07,5.45-42.7-.37-63.73-5.52-19.91-11.39-39.75-18.65-59.1a437,437,0,0,0-40.83-81.64c-10.95-17.14-23.09-33.5-35.21-49.84-17.65-23.8-35.33-47.62-54.85-69.9-44.93-51.27-99-93.64-153.59-134.43-18.82-14.06-39.07-29.9-44.3-52.8-4.81-21.05,4.16-44.7-5.64-63.94-4-7.85-10.7-13.92-17-20a374.4,374.4,0,0,1-46-53.62,37.57,37.57,0,0,0,11.19,40"/><path class="cls-12" d="M99.47,257.76c22.88,9.95,29.19,38.71,36.38,60.06q14.52,43.05,29,86.11l6.94,20.6c.49,1.48.67,3.83,2.13,4.71,2.44,1.49,7.19,1.36,10.08,1.72,3.18.4,6.39.66,9.6.79,1.39.06,4.55-.46,5.78.09,1.62.73,1.67,1.42,2.53,3a61.19,61.19,0,0,0,9.13,12.32c14.78,15.64,35.46,24,54.13,33.89,41.5,22,72.34,57.31,96.62,96.9,12.38,20.18,23.18,41.29,33.39,62.63,5.09,10.63,10,21.32,14.94,32s9.62,21.64,17.1,30.79A54,54,0,0,0,442.46,716c6.43,3.69,13.19,6.73,18.6,12,9.9,9.55,14.61,23,18.41,35.93,9.52,32.32,18.21,64.9,27.3,97.35a1.52,1.52,0,0,0,2.74.35c11.79-22.16,4.58-47.82-1.79-70.48-7.5-26.68-16-53-27.31-78.38-22.86-51.24-56.91-96-91-140.23-33.05-42.93-70.62-81-112.26-115.65-20.06-16.7-40.73-32.65-61.58-48.35-19.06-14.33-42.52-29-51.54-52.27-9.86-25.48,5.39-55.26-12.45-78.42-8.52-11-19.86-20-29.28-30.34A379.7,379.7,0,0,1,93,211.08a1.52,1.52,0,0,0-2.74.35,39.44,39.44,0,0,0,11.57,41.47c1.45,1.26,3.59-.85,2.13-2.12a36.47,36.47,0,0,1-10.81-38.55l-2.74.36c15.12,21.3,32.44,40.24,51,58.53,10.1,9.95,15.94,20.44,16.57,34.82.54,12.32-1.53,24.65-.19,36.94,2.42,22.26,18,38.55,34.73,51.92,19.68,15.71,40.26,30.29,60,45.94,41.78,33.11,81.64,68.79,115.7,109.94,18,21.78,34.78,44.61,51.54,67.37,16.13,21.91,31.51,44.28,44.35,68.3,14.67,27.43,26,56.32,35,86.06,4.34,14.28,8.85,28.71,11.68,43.38,2.88,14.9,3.41,30.57-3.9,44.32l2.74.36-18.15-64.8c-5.06-18.07-8.82-37.55-17.34-54.41a53.57,53.57,0,0,0-15-18.81c-7.72-5.88-17.21-8.92-24.45-15.5-13.4-12.17-19.71-31-27.14-47C379.41,599,347.75,534.47,292,494c-15.34-11.12-32.37-18.9-49-27.84-16.29-8.78-32.15-19.41-40.35-36.61a1.46,1.46,0,0,0-1.29-.74,121.82,121.82,0,0,1-15.4-.63c-2.39-.25-7,0-9.13-1.37s-2.56-4.44-3.36-6.83L164,391.9l-19.24-57.1c-5.54-16.44-10.32-33.41-17.28-49.33-5.52-12.62-13.43-24.63-26.48-30.3-1.75-.77-3.28,1.82-1.51,2.59Z"/><path class="cls-13" d="M102.49,253.58a3.28,3.28,0,0,1-4.37,3.06"/><path class="cls-12" d="M101,253.58a1.79,1.79,0,0,1-2.47,1.62,1.51,1.51,0,0,0-1.85,1,1.54,1.54,0,0,0,1,1.85,4.8,4.8,0,0,0,6.27-4.51c0-1.93-3-1.93-3,0Z"/><path class="cls-14" d="M531,492.91a181.11,181.11,0,0,1-214.21,178,134.2,134.2,0,0,0,95.7-91.81,65.32,65.32,0,0,0-7.62-.33c-1.71,0-3.77.26-7.37.69-21.22,2.56-29.45,6.69-45,8-1.08.09-2.31.18-3.68.24a8.07,8.07,0,0,1-7.39-12.12l.07-.12a41.88,41.88,0,0,1,11-12,42.59,42.59,0,0,1,22-8l42.88-1.62,10.12-.38a64.06,64.06,0,0,1-9.61-7.16c-7-6.26-15.3-16.4-16.39-29.84-.7-8.72,1.72-17.73,6.7-25.89a133.8,133.8,0,0,0-24.64-39.3q-5.52,16.59-11.06,33.19a235.19,235.19,0,0,1-34,1c-16.76-.74-20.48-2.76-32-1-6.39,1-16,2.45-27,8-7.18,3.64-9.46,6.25-15,7-8.37,1.13-15.89-3.14-21-7l7-12a41.88,41.88,0,0,1,11-12,42.59,42.59,0,0,1,22-8h46v-15.5H221A17.94,17.94,0,0,1,203,427V394q0-3.53.22-7A116.07,116.07,0,0,1,319.11,277.91H331v35a183.51,183.51,0,0,1,19-1A181,181,0,0,1,531,492.91Z"/><circle class="cls-13" cx="281.53" cy="381.41" r="31"/><circle class="cls-15" cx="286.03" cy="390.91" r="21"/><circle class="cls-13" cx="296.03" cy="384.91" r="6"/></g></g></svg>