<?xml version="1.0" encoding="utf-8"?>
<!-- Generator: Adobe Illustrator 23.0.1, SVG Export Plug-In . SVG Version: 6.00 Build 0)  -->
<svg version="1.1" id="Calque_1" xmlns="http://www.w3.org/2000/svg" xmlns:xlink="http://www.w3.org/1999/xlink" x="0px" y="0px"
	 viewBox="0 0 135 156.6" style="enable-background:new 0 0 135 156.6;" xml:space="preserve">
<style type="text/css">
	.st0{fill:url(#SVGID_1_);}
	.st1{fill:url(#SVGID_2_);}
	.st2{fill:#F0837C;}
	.st3{opacity:0.79;}
	.st4{fill:#232B54;}
	.st5{fill:#438A66;}
	.st6{opacity:0.65;fill:#232B54;enable-background:new    ;}
	.st7{font-family:'ArialRoundedMTBold';}
	.st8{font-size:54.91px;}
</style>
<title>cheap</title>
<g id="Calque_1-2">
	
		<linearGradient id="SVGID_1_" gradientUnits="userSpaceOnUse" x1="20.8" y1="1096.8457" x2="135" y2="1096.8457" gradientTransform="matrix(1 0 0 1 0 -962.11)">
		<stop  offset="0.46" style="stop-color:#F0A1A1"/>
		<stop  offset="0.85" style="stop-color:#F0A1A1"/>
	</linearGradient>
	<path class="st0" d="M98.1,130.1l22.9-10.8c5-2.6,11.2-0.7,14,4.2l-46.6,30.1c-6.2,2.9-13.3,3.7-20,2.3l-32.1-9
		c-3-0.8-6.1-0.5-8.8,1l-6.7,3.6l0.9-32.8H22c9.6-6.8,22.2-7.7,32.7-2.3l1.9,1c3,1.6,6.3,2.4,9.7,2.5l18.9,0.5
		C91.1,120.6,96.3,124.5,98.1,130.1z"/>
	
		<linearGradient id="SVGID_2_" gradientUnits="userSpaceOnUse" x1="33.5" y1="1034.61" x2="103.99" y2="1034.61" gradientTransform="matrix(1 0 0 1 0 -962.11)">
		<stop  offset="0" style="stop-color:#FCD66C"/>
		<stop  offset="0.53" style="stop-color:#FCD66C"/>
		<stop  offset="1" style="stop-color:#FCD66C"/>
	</linearGradient>
	<path class="st1" d="M103.9,72.5c0,19.4-15.8,35.2-35.2,35.2S33.5,91.9,33.5,72.5s15.8-35.2,35.2-35.2
		C88.1,37.3,103.9,53,103.9,72.5C103.9,72.5,103.9,72.5,103.9,72.5z"/>
	<path class="st2" d="M98.8,137.4L98.8,137.4l-31.1-0.9c-1.4-0.1-2.6-1.3-2.5-2.7s1.3-2.6,2.7-2.5l28.1,0.8
		c-0.1-0.4-0.2-0.8-0.3-1.3c-1.5-4.6-5.7-7.7-10.5-7.9l-18.9-0.5c-3.8-0.1-7.5-1.1-10.8-2.8l-1.9-1c-9.6-5-21.1-4.2-29.9,2.1
		c-1.2,0.8-2.8,0.6-3.6-0.6s-0.6-2.8,0.6-3.6c10.4-7.4,24.1-8.4,35.4-2.5l1.9,1c2.7,1.4,5.6,2.1,8.6,2.2l18.9,0.5
		c9.1,0.3,16.4,7.9,16.1,17c0,0,0,0.1,0,0.1C101.4,136.2,100.2,137.3,98.8,137.4L98.8,137.4z"/>
	<g class="st3">
		<path class="st4" d="M69.1,30c-1.4,0-2.6-1.2-2.6-2.6V2.6c0-1.4,1.2-2.6,2.6-2.6c1.4,0,2.6,1.2,2.6,2.6v24.8
			C71.7,28.8,70.6,30,69.1,30C69.1,30,69.1,30,69.1,30z"/>
		<path class="st4" d="M88.7,30c-1.4,0-2.6-1.2-2.6-2.6V15.7c0-1.4,1.2-2.6,2.6-2.6c1.4,0,2.6,1.2,2.6,2.6c0,0,0,0,0,0v11.7
			C91.3,28.8,90.1,30,88.7,30z"/>
		<path class="st4" d="M49.5,30c-1.4,0-2.6-1.2-2.6-2.6V15.7c0-1.4,1.2-2.6,2.6-2.6c1.4,0,2.6,1.2,2.6,2.6v11.7c0,1.4-1,2.6-2.4,2.6
			C49.6,30,49.6,30,49.5,30z"/>
	</g>
	<path class="st5" d="M20.8,151.4l-0.1,3.7L0,154.5l1.3-45.4l20.7,0.6l-0.2,9L20.8,151.4z"/>
	<text transform="matrix(1 0 0 1 52.35 90.44)" class="st6 st7 st8">£</text>
</g>
</svg>
