<?xml version="1.0" encoding="utf-8"?>
<!-- Generator: Adobe Illustrator 23.0.1, SVG Export Plug-In . SVG Version: 6.00 Build 0)  -->
<svg version="1.1" id="Calque_1" xmlns="http://www.w3.org/2000/svg" xmlns:xlink="http://www.w3.org/1999/xlink" x="0px" y="0px"
	 viewBox="0 0 135.4 110.5" style="enable-background:new 0 0 135.4 110.5;" xml:space="preserve">
<style type="text/css">
	.st0{fill:#0D4596;}
	.st1{fill:#1F2D53;}
	.st2{fill:#2055A3;}
	.st3{fill:#232B54;}
	.st4{fill:#2EA562;}
	.st5{fill:#438A66;}
	.st6{fill:#F3EEE9;}
	.st7{fill:#E9DFD9;}
	.st8{opacity:0.47;fill:#346B4F;enable-background:new    ;}
	.st9{fill:#E56164;}
	.st10{fill:#C65557;}
	.st11{opacity:0.84;}
</style>
<title>fast</title>
<g>
	<g id="Calque_1-2">
		<path class="st0" d="M20.7,26.9l13.3-13.3l4.6,4.6l-4.4,4.4l6.3,6.3L36,33.5l-6.3-6.3l-4.4,4.4L20.7,26.9z"/>
		<path class="st1" d="M20.7,26.9l13.3-13.3l4.6,4.6l-4.4,4.4l6.3,6.3L36,33.5l-6.3-6.3l-4.4,4.4L20.7,26.9z"/>
		<path class="st2" d="M81.7,3.2v18.9h-24v-19h24V3.2z"/>
		<path class="st3" d="M57.8,3.2h12v19h-12V3.2z"/>
		<path class="st2" d="M87.8,0H51.6v6.5h36.3V0z"/>
		<path class="st3" d="M69.7,0H51.6v6.5h18.1V0z"/>
		<path class="st4" d="M36,28.9c18.7-18.7,48.9-18.7,67.6,0s18.7,48.9,0,67.6s-48.9,18.7-67.6,0c-9-9-14-21.1-14-33.8
			C21.9,50,27,37.8,36,28.9z"/>
		<path class="st5" d="M36,28.9c8.9-9,21.1-14,33.8-14v95.5C43.4,110.4,22,89.1,22,62.7C21.9,50,27,37.9,36,28.9z"/>
		<path class="st6" d="M37.3,62.6C37.2,80.5,51.8,95,69.6,95c17.9,0,32.4-14.5,32.4-32.4S87.5,30.2,69.7,30.2c0,0,0,0,0,0
			C51.8,30.2,37.3,44.7,37.3,62.6C37.2,62.6,37.2,62.6,37.3,62.6z"/>
		<path class="st7" d="M69.7,30.2V95c-17.9,0-32.4-14.5-32.4-32.4S51.7,30.2,69.7,30.2C69.6,30.2,69.6,30.2,69.7,30.2z"/>
		<path class="st5" d="M69.7,26.8c19.8,0,35.8,16,35.8,35.8s-16,35.8-35.8,35.8s-35.8-16-35.8-35.8C33.9,42.8,49.9,26.8,69.7,26.8z
			 M66.3,91.4v-6.8h6.8v6.8C86.5,89.9,97,79.3,98.6,66h-6.8v-6.8h6.8C97,45.9,86.5,35.3,73.2,33.8v6.8h-6.8v-6.8
			C53,35.4,42.5,45.9,41,59.2h6.8V66H41C42.5,79.4,53,89.9,66.3,91.4z"/>
		<path class="st8" d="M69.7,26.8v13.8h-3.3v-6.8C53,35.3,42.5,45.9,41,59.2h6.8V66H41C42.5,79.3,53,89.8,66.3,91.4v-6.8h3.4v13.8
			c-19.8,0-35.8-16-35.8-35.8S49.9,26.8,69.7,26.8z"/>
		<path class="st9" d="M69.7,53.7c1.2,0,2.4,0.3,3.5,0.7l14.7-5.2l-10,10c0.4,1.1,0.7,2.2,0.7,3.4c0,4.9-4,8.9-8.9,8.9
			c-4.9,0-8.9-4-8.9-8.9C60.7,57.7,64.7,53.7,69.7,53.7z"/>
		<path class="st10" d="M69.7,53.7v17.9c-4.9-0.5-8.5-5-8-9.9C62.1,57.5,65.4,54.1,69.7,53.7z"/>
		<g class="st11">
			<path class="st3" d="M11.9,58.3c0-1.4-1.2-2.6-2.6-2.6h-24.6c-1.4,0-2.6,1.2-2.6,2.6c0,1.4,1.2,2.6,2.6,2.6H9.4
				C10.8,60.9,11.9,59.7,11.9,58.3z"/>
			<path class="st3" d="M11.9,77.7c0-1.4-1.2-2.6-2.6-2.6H-2.2c-1.4,0-2.6,1.2-2.6,2.6c0,1.4,1.2,2.6,2.6,2.6c0,0,0,0,0,0H9.4
				C10.8,80.3,11.9,79.1,11.9,77.7z"/>
			<path class="st3" d="M11.9,38.9c0-1.4-1.2-2.6-2.6-2.6H-2.2c-1.4,0-2.6,1.2-2.6,2.6c0,1.4,1.2,2.6,2.6,2.6H9.4
				C10.8,41.5,11.9,40.3,11.9,38.9z"/>
		</g>
	</g>
</g>
</svg>
