<svg xmlns="http://www.w3.org/2000/svg" viewBox="0 0 133.85 172.32"><defs><style>.cls-1{fill:#2ea562;}.cls-2{fill:#438a66;}.cls-3{fill:#f0f0f0;}.cls-4{fill:#2055a3;}.cls-5{fill:#e56164;}.cls-6{fill:#f6f6f6;opacity:0.67;isolation:isolate;}</style></defs><title>local</title><g id="Calque_2" data-name="Calque 2"><g id="Calque_1-2" data-name="Calque 1"><g id="Calque_1-2-2" data-name="Calque 1-2"><path class="cls-1" d="M127,37.24C115.78,15.44,93.29,0,66.91,0V34.1a33.48,33.48,0,0,1,33.86,33.37c0,18.45-15.31,34.35-33.86,34.35v70.5c23.78-24.77,51.14-52,63.12-84.62A63.74,63.74,0,0,0,127,37.24Z"/><path class="cls-2" d="M3.81,87.7c12,32.61,39.34,59.85,63.11,84.62v-70.5c-18.54,0-33.85-15.9-33.85-34.35,0-18.67,15.18-33.36,33.85-33.37V0C40.54,0,18.05,15.44,6.86,37.24A63.74,63.74,0,0,0,3.81,87.7Z"/><circle class="cls-3" cx="66.92" cy="66.9" r="53.85"/><path class="cls-4" d="M24.2,34.11a53.86,53.86,0,0,0-9.28,18.74h28Z"/><path class="cls-4" d="M118.91,52.85a53.62,53.62,0,0,0-9.27-18.73L90.9,52.85Z"/><path class="cls-4" d="M14.92,81A53.54,53.54,0,0,0,24.2,99.69L42.93,81Z"/><path class="cls-4" d="M99.7,24.18A53.68,53.68,0,0,0,81,14.9v28Z"/><path class="cls-4" d="M34.13,109.62a53.77,53.77,0,0,0,18.74,9.28v-28Z"/><path class="cls-4" d="M52.87,14.9a53.77,53.77,0,0,0-18.74,9.28L52.87,42.92Z"/><path class="cls-4" d="M81,118.9a53.86,53.86,0,0,0,18.74-9.28L81,90.88Z"/><path class="cls-4" d="M90.9,81l18.73,18.74A53.86,53.86,0,0,0,118.91,81Z"/><path class="cls-5" d="M120.31,59.88H73.94V13.51a53.78,53.78,0,0,0-14,0V59.88H13.52a54.67,54.67,0,0,0,0,14H59.89v46.37a53.78,53.78,0,0,0,14,0V73.92h46.37a53.78,53.78,0,0,0,0-14Z"/><path class="cls-5" d="M81,81h0l24,24c1.11-1.11,2.16-2.26,3.17-3.46L87.59,81Z"/><path class="cls-5" d="M52.87,81h0l-24,24c1.1,1.1,2.26,2.16,3.45,3.16L52.87,87.57Z"/><path class="cls-5" d="M52.87,52.85h0l-24-24c-1.11,1.11-2.16,2.26-3.17,3.46L46.25,52.85Z"/><path class="cls-5" d="M81,52.85h0l24-24c-1.1-1.1-2.26-2.16-3.45-3.16L81,46.23Z"/><path class="cls-6" d="M66.89,7.31A60.22,60.22,0,0,0,10.82,46.62,59.65,59.65,0,0,0,97.63,118a60.25,60.25,0,0,0,27.69-63.13A59.55,59.55,0,0,0,66.89,7.31m48,81.27c-10.18,22.55-35.59,35.27-59.74,29.75A52.69,52.69,0,1,1,118,79.77a53.75,53.75,0,0,1-3.07,8.81c-.71,1.56.52-1.16,0,0"/></g></g></g></svg>