<?xml version="1.0" encoding="utf-8"?>
<!-- Generator: Adobe Illustrator 23.0.1, SVG Export Plug-In . SVG Version: 6.00 Build 0)  -->
<svg version="1.1" id="SVGRoot" xmlns="http://www.w3.org/2000/svg" xmlns:xlink="http://www.w3.org/1999/xlink" x="0px" y="0px"
	 viewBox="0 0 114.1 131.5" style="enable-background:new 0 0 114.1 131.5;" xml:space="preserve">
<style type="text/css">
	.st0{fill-rule:evenodd;clip-rule:evenodd;fill:#1D1D1B;}
</style>
<title>logo</title>
<g id="layer1">
	<g id="g7820">
		<g id="g7822">
			<path id="path7826" class="st0" d="M45.8,71.1L20,73.5l25-23.3c1-0.1,2-0.1,3.1,0c2.8,0.2,5.2,0.6,8.1-3l12.3-15.3l-0.9-0.8
				L54.8,43c-1.1,1-2.6-0.3-1.5-1.4l12.8-11.9l-1.3-1.2L52,40.4c-0.4,0.5-1.1,0.5-1.6,0.1c-0.4-0.4-0.3-1,0.1-1.4c0,0,0,0,0,0
				l12.8-11.9L62,25.9L49.1,37.8c-1.1,1.1-2.6-0.3-1.5-1.4l12.8-11.9l-0.9-0.8L43,35.2c-3.8,2.7-3.4,4.9-3.2,7.5
				c0.1,0.9,0.1,1.9,0.1,2.8L16,67.9L32,18.4L77.4,7.7c-5.9-1.8-12.1-2.7-18.3-2.7C26.5,4.9,0,29.6,0,60.1
				c0,21.7,13.5,40.5,33.1,49.5L45.8,71.1z"/>
			<path id="path7828" class="st0" d="M96.7,19.3L97.9,0L64.2,57.3l-2.9,4.9L61,62.3c-4.4,0.5-8.3,3.2-10.3,7.2
				c-3.3,6-3.8,14.2,0.6,16.4c4.6,2.3,11.4-2.6,15.2-8.4c2.5-3.5,2.9-8.1,1-12l-0.1-0.3l5.1-8.7l29.2-2.7l-80.4,77.6l31.4-18.1
				c0.8,0,1.6,0.1,2.4,0.1c32.6,0,59.1-24.7,59.1-55.1C114.1,43.5,107.8,29.3,96.7,19.3"/>
		</g>
	</g>
</g>
</svg>
