<svg xmlns="http://www.w3.org/2000/svg" xmlns:xlink="http://www.w3.org/1999/xlink" viewBox="0 0 2149.65 938.18"><defs><style>.cls-1{fill:url(#Nouvelle_nuance_de_dégradé_1_4);}.cls-2{fill:url(#Dégradé_sans_nom_3);}.cls-3{fill:#78a9db;}.cls-12,.cls-13,.cls-20,.cls-32,.cls-4{fill:none;}.cls-4{stroke:#fbfbfb;stroke-width:1.53px;}.cls-12,.cls-13,.cls-19,.cls-20,.cls-21,.cls-4{stroke-miterlimit:10;}.cls-5{fill:#fbfbfb;}.cls-6{fill:#c55557;}.cls-7{fill:#0a0d1c;}.cls-8{fill:#434141;}.cls-9{fill:#97bbe1;}.cls-10,.cls-19,.cls-29{fill:#fff;}.cls-11{fill:#f4bc54;}.cls-12,.cls-13{stroke:#0a0d1c;}.cls-12{stroke-width:1.13px;}.cls-13{stroke-width:3.42px;}.cls-14{fill:#e56164;}.cls-15{fill:#c65557;}.cls-16{fill:#e99496;}.cls-17,.cls-21,.cls-31{fill:#232b54;}.cls-18{opacity:0.57;}.cls-19,.cls-20{stroke:#97bbe1;stroke-width:2px;}.cls-21{stroke:#fff;stroke-width:0.61px;}.cls-22{fill:#55588a;}.cls-23{fill:#606799;}.cls-24{fill:#28285b;}.cls-25{fill:#eb663e;}.cls-26{fill:#e7472b;}.cls-27{fill:#fabe00;}.cls-28{fill:#f6a613;}.cls-29{opacity:0.17;}.cls-30{opacity:0.85;}.cls-31{fill-rule:evenodd;}</style><linearGradient id="Nouvelle_nuance_de_dégradé_1_4" x1="793.37" y1="52.37" x2="1214.93" y2="1210.6" gradientUnits="userSpaceOnUse"><stop offset="0" stop-color="#f1f1f1" stop-opacity="0.6"/><stop offset="0.05" stop-color="#bbbdd0" stop-opacity="0.74"/><stop offset="0.11" stop-color="#8c90b5" stop-opacity="0.85"/><stop offset="0.17" stop-color="#6b71a1" stop-opacity="0.94"/><stop offset="0.26" stop-color="#585e95" stop-opacity="0.99"/><stop offset="0.45" stop-color="#525992"/><stop offset="0.46" stop-color="#505790"/><stop offset="0.58" stop-color="#383f6f"/><stop offset="0.68" stop-color="#29305a"/><stop offset="0.75" stop-color="#232a53"/><stop offset="0.76" stop-color="#20274b"/><stop offset="0.79" stop-color="#1a1f3a"/><stop offset="0.82" stop-color="#151a2f"/><stop offset="0.87" stop-color="#131728"/><stop offset="0.99" stop-color="#121626"/></linearGradient><linearGradient id="Dégradé_sans_nom_3" x1="1058.27" y1="919.96" x2="1058.27" y2="646.65" gradientUnits="userSpaceOnUse"><stop offset="0" stop-color="#f8af3c"/><stop offset="0.03" stop-color="#f9b949"/><stop offset="0.07" stop-color="#fac55a"/><stop offset="0.13" stop-color="#face65"/><stop offset="0.22" stop-color="#fbd46c"/><stop offset="0.45" stop-color="#fbd56e"/><stop offset="0.63" stop-color="#fac458"/><stop offset="0.85" stop-color="#f8b543"/><stop offset="1" stop-color="#f8af3c"/></linearGradient></defs><title>biker</title><g id="Calque_2" data-name="Calque 2"><g id="Calque_3" data-name="Calque 3"><path class="cls-1" d="M2080.68,664.87V895.49H35.86V664.87H155.1q2-2.5,4-5.18c23.11-32.37,10.85-52.58,36.49-99,29.93-54.18,77-81.66,116.38-104,69-39.16,82.38-22.52,167.66-60,47-20.66,107.53-47.27,159.77-104,51.18-55.59,34.93-75.53,90.73-147,31.11-39.85,76.13-97.51,155.83-127,29-10.73,104.49-33.25,187.38-5,76.68,26.13,121.48,82.69,167.66,141,49.91,63,52.2,90.88,114.31,156.24,55.46,58.37,85.33,70.86,109.52,72,33.57,1.55,64.61-16.89,97.52-23.74,66.16-13.78,139.26,26.23,164.2,89.88,10.66,27.2,13.58,58.08,30.66,81.67,33.84,46.77,103.49,42.81,153.91,70.21,26.91,14.63,24.9,19.2,48.35,34A311.42,311.42,0,0,0,2021,664.87Z"/><rect class="cls-2" x="30.3" y="664.87" width="2055.94" height="273.31"/><path class="cls-3" d="M1223,326.23v30.71s6.51-1,6.51-17.06S1223,326.23,1223,326.23Z"/><path class="cls-3" d="M1246.18,385.41l-5.34-37.5a4.67,4.67,0,0,0-4.23-4l-10.45-.94.25-2.88,10.45.93a7.57,7.57,0,0,1,6.84,6.49l5.35,37.5Z"/><path class="cls-4" d="M1251.28,398.35l-17.6-63.06a12.51,12.51,0,0,0-12-9.15h-9.69"/><ellipse class="cls-5" cx="1208.13" cy="324.63" rx="7.64" ry="22.78"/><circle class="cls-5" cx="1261.42" cy="409.83" r="24.19" transform="translate(655.58 1589.71) rotate(-80.82)"/><rect class="cls-6" x="1227.92" y="379.16" width="40.41" height="61.34" rx="4.58"/><rect class="cls-7" x="735.13" y="655.92" width="34.52" height="23.67"/><circle class="cls-8" cx="1353.11" cy="718.25" r="95.8"/><circle class="cls-9" cx="1353.11" cy="718.25" r="60.94"/><path class="cls-10" d="M1335.36,718.25a17.76,17.76,0,1,0,17.75-17.75A17.75,17.75,0,0,0,1335.36,718.25Z"/><path class="cls-6" d="M1353.38,585.28a125.46,125.46,0,0,1,125.46,125.46H1227.92A125.46,125.46,0,0,1,1353.38,585.28Z"/><rect class="cls-11" x="740.3" y="392.88" width="125.91" height="35.34"/><rect class="cls-10" x="727.49" y="427.74" width="151.53" height="111.19"/><line class="cls-12" x1="794.51" y1="392.88" x2="789.17" y2="542.14"/><line class="cls-12" x1="806.04" y1="392.88" x2="811.38" y2="542.14"/><line class="cls-13" x1="705.11" y1="542.14" x2="897.29" y2="542.14"/><line class="cls-13" x1="769.7" y1="542.14" x2="812.48" y2="573.48"/><path class="cls-14" d="M1237.23,388.82l-49.13,28.26,43.5,98.15s29.82,53,10.45,99.37c-21.86,52.35-47,79.67-47,79.67h-97.71a59.93,59.93,0,0,1-49.68-26.46c-11.64-17.23-21.74-41-13.55-65.31,14.62-43.46,57.49-63.38,57.49-63.38H855.81s-41.17,12.17-102,116.8h27.17l176.55,54.82h235.33s27.13,9.15,64.5-50.87l60.49-57.37h0A133.11,133.11,0,0,0,1292.17,524l-54.94-75.14Z"/><path class="cls-8" d="M1054.77,543.6a18.85,18.85,0,0,1,13.18,5.33c8.36,8.13,25.46,21.57,38,10.36,17.21-15.4,1.81-41.21-24.45-38.95s-112.3,2.72-144-14.49-43.92-18.11-53.88-7.24,5.88,41.08,35.32,45Z"/><circle class="cls-8" cx="878.24" cy="718.25" r="95.8"/><circle class="cls-9" cx="878.24" cy="718.25" r="60.94"/><path class="cls-10" d="M860.49,718.25a17.76,17.76,0,1,0,17.75-17.75A17.75,17.75,0,0,0,860.49,718.25Z"/><path class="cls-15" d="M746.79,698.64s14-90.78,114.27-129.65,138.45,16.08,143.82,26.44c8.88,17.13,20.85,68.84-12.51,103.21Z"/><path class="cls-15" d="M820.57,670.49H931.88a3.69,3.69,0,0,0,3.69-3.68h0a3.68,3.68,0,0,0-3.69-3.68H820.57a3.68,3.68,0,0,0-3.69,3.68h0A3.69,3.69,0,0,0,820.57,670.49Z"/><path class="cls-15" d="M833,652.78H922.1a3.68,3.68,0,0,0,3.68-3.68h0a3.68,3.68,0,0,0-3.68-3.68H833a3.68,3.68,0,0,0-3.68,3.68h0A3.68,3.68,0,0,0,833,652.78Z"/><path class="cls-15" d="M845.48,635.43h63.81a3.69,3.69,0,0,0,3.69-3.68h0a3.69,3.69,0,0,0-3.69-3.68H845.48a3.69,3.69,0,0,0-3.69,3.68h0A3.69,3.69,0,0,0,845.48,635.43Z"/><polygon class="cls-16" points="1042.62 253.73 1020.05 312.92 980.25 303.27 1008.24 248.32 1042.62 253.73"/><path class="cls-16" d="M1061.15,222.73l3.91,39.43a17.72,17.72,0,0,1-15.88,19.38h0c-14,1.38-27.2-7-32.61-20l-12.71-30a10.91,10.91,0,0,1,9-15.06l31.41-6.58C1050.27,209.37,1060.55,216.73,1061.15,222.73Z"/><path class="cls-16" d="M1062.28,240.36l8.07,9.81c1,1.66-.75,3.61-3.08,3.49l-11.88,2.21Z"/><path class="cls-17" d="M1017.54,223.85s11.84,4.31,7.79,13.85c-3.39,8-1,22.29,9.45,19.16s21.41-6,29.49-2.65l2.49,10.74a16.87,16.87,0,0,1-12.18,20.23l-.48.11c-16,3.83-41.39-3.18-41-31.45l-3-26Z"/><path class="cls-17" d="M1008.59,209.5c-2.69.47-24.41-.28-24.61,23.92-.12,15.39,12.73,32.56,12.84,32.41,0,0,7.94-.5,10.15-11.8.56-2.89.11-4.92-.87-6.37L1023,225.89s-4.73-3.54,2.63-7.87c13.13-7.72,28.18-4.68,28.18-4.68C1049.64,199.36,1011.28,209,1008.59,209.5Z"/><path class="cls-16" d="M993.73,243.24c-3.66,9.63,4.9,18,13.73,15.17a10.94,10.94,0,0,0,7.57-9.25c1-9.2-8.84-16-17.56-10.48A9.35,9.35,0,0,0,993.73,243.24Z"/><path class="cls-9" d="M1058,212.37l42.23-6.25a2.35,2.35,0,0,1,2.5,1.76,2.28,2.28,0,0,1-1.65,3l-39.37,7.79a3,3,0,0,1-3.57-2.33c-.32-1.61-1.82-2.51-.17-2.83C1058,213.52,1057.87,212.38,1058,212.37Z"/><path class="cls-9" d="M982,235.56l81.08-17.09s-8.13-37.73-49.34-29C972.84,198.21,982,235.56,982,235.56Z"/><path class="cls-10" d="M1001.07,295.86S981,290.1,969,310.7c-14.26,24.36-10.83,63.06.83,94.34l5,58.16h95.9s4.32-64.12-14.17-105.13C1032.12,304,1001.07,295.86,1001.07,295.86Z"/><path class="cls-16" d="M1058.4,378.45l17.67,25.88A27.23,27.23,0,0,1,1071,440.6h0a27.23,27.23,0,0,1-39.22-4.59l-18-24.07Z"/><g class="cls-18"><path class="cls-19" d="M1058.09,376.26,1031,335.66a31.89,31.89,0,0,0-47.84-6h0a31.89,31.89,0,0,0-4.83,42l29.55,42.29Z"/><line class="cls-20" x1="1058.4" y1="376.26" x2="1033.9" y2="339.93"/><polyline class="cls-20" points="1013.75 409.75 1007.9 413.9 974.04 362.83"/></g><path class="cls-16" d="M1057.65,394.94l109.92,14.54-4.42,30.81-108.58,4.43c-18.2-2.57-31-16.85-25.06-34.23h0C1034.12,397.08,1043.63,392.74,1057.65,394.94Z"/><path class="cls-16" d="M1159.4,413.28,1203.09,393a10.73,10.73,0,0,1,12.52,2.56l12.92,16.34a12,12,0,0,1,2.11,12.75l-2,4.74a12.09,12.09,0,0,1-4.38,5.29l-6,4a8.37,8.37,0,0,1-10.44-.92l-4.36-4.19-18.89,6.65s-14.13,6.9-30.5-4.76Z"/><path class="cls-7" d="M1191.93,420l-9.34,5.67a12.43,12.43,0,0,0-.34,18.45h0a12.43,12.43,0,0,0,17.66-.66l8.67-6.36a12,12,0,0,0-.8-16.95h0A12,12,0,0,0,1191.93,420Z"/><polygon class="cls-10" points="1116.36 603.47 1161.47 607 1161.3 649.68 1118.14 650.29 1116.36 603.47"/><path class="cls-17" d="M1114.29,645.46l.48,42.46,110.3-1.21s0-18.24-22.52-21.3-27.71-1.55-32.85-8.23c-2.93-3.8-3.71-8.95-3.88-12.41a3.87,3.87,0,0,0-3.91-3.72l-43.79.49A3.88,3.88,0,0,0,1114.29,645.46Z"/><rect class="cls-17" x="1110.81" y="687.31" width="118.79" height="7.1" transform="translate(2347.9 1368.86) rotate(179.37)"/><path class="cls-17" d="M1159.3,654.81a1.68,1.68,0,1,0,1.65-1.69A1.68,1.68,0,0,0,1159.3,654.81Z"/><path class="cls-17" d="M1164.52,662.17a1.67,1.67,0,1,0,1.65-1.7A1.67,1.67,0,0,0,1164.52,662.17Z"/><path class="cls-17" d="M1174.17,666.63a1.68,1.68,0,1,0,1.66-1.7A1.68,1.68,0,0,0,1174.17,666.63Z"/><path class="cls-17" d="M1185.41,668.17a1.67,1.67,0,1,0,1.65-1.69A1.67,1.67,0,0,0,1185.41,668.17Z"/><line class="cls-21" x1="1114.77" y1="687.92" x2="1225.07" y2="686.71"/><rect class="cls-22" x="1105.6" y="497.02" width="67.86" height="126.28"/><rect class="cls-23" x="1098.78" y="599.09" width="82.73" height="24.21"/><path class="cls-22" d="M974.77,463s-24.34,69.32,42.1,69.32H1138.8a34.66,34.66,0,0,0,34.66-34.66h0A34.66,34.66,0,0,0,1138.8,463Z"/><path class="cls-24" d="M1037.74,228c-.07-.19,4.48-2.42,10.13-3.93,6.21-1.66,8.57-1.07,8.76-.51a9.31,9.31,0,0,1,.15,1,5.39,5.39,0,0,1,.09.9c-.17,1-3.6,1.79-6.06,1.25-.25-.06-.87-.21-1.8-.36s-1.73-.24-1.87-.25c-1.33-.13-2.68.12-5.78.94C1038.48,227.82,1037.77,228.11,1037.74,228Z"/><path class="cls-25" d="M621.89,711.15a75.44,75.44,0,0,0,22.31-12.79s-90.55-2.87-94.7-52.43c61.5,19.64,86.22-6.09,54.6-20.13,36.39-13.21,61.62,2.89,61.62,2.89,3.07-6.78-6.43-13.86-6.43-13.86,1.35.1,2.71.23,4.07.38,39.45,4.54,66.17,30.53,59.68,58.07s-43.75,46.17-83.21,41.64A96.73,96.73,0,0,1,621.89,711.15Z"/><path class="cls-26" d="M664.75,616s9.49,7.08,6.42,13.86c0,0-25.23-16.11-61.62-2.9,31.63,14,6.91,39.78-54.59,20.14a39,39,0,0,0,1.38,7.57l172.15,19.77C735,647,708.27,621,668.81,616.42,667.46,616.27,666.1,616.14,664.75,616Z"/><path class="cls-27" d="M697.06,692.75c17.31,2,33.64-6.19,36.49-18.27S724.68,651,707.38,649a42.23,42.23,0,0,0-25,4.58c14.47,10.35-13.34,19.53-29.36,8C653,661.64,651.56,687.52,697.06,692.75Z"/><path class="cls-28" d="M707.38,649a42.23,42.23,0,0,0-25,4.58c14.47,10.35-13.34,19.53-29.36,8a16.18,16.18,0,0,0,.38,3.63l80.19,9.21C736.4,662.41,724.68,651,707.38,649Z"/><polygon class="cls-29" points="993.43 286.42 992.82 279.99 785.8 285.19 993.43 286.42"/><polygon class="cls-29" points="971.39 349.61 970.46 343.05 658.29 348.34 971.39 349.61"/><polygon class="cls-29" points="978.35 319.52 977.26 313.12 615.61 318.29 978.35 319.52"/><polygon class="cls-29" points="728.57 503.37 728.05 496.94 555.03 502.13 728.57 503.37"/><polygon class="cls-29" points="856.39 479.26 855.61 472.71 594.71 478 856.39 479.26"/><polygon class="cls-29" points="853.06 457.93 852.16 451.54 549.89 456.7 853.06 457.93"/><polygon class="cls-29" points="1261.95 731.52 1261.33 725.09 1054.32 730.28 1261.95 731.52"/><polygon class="cls-29" points="1290.38 784.78 1289.44 778.22 977.27 783.52 1290.38 784.78"/><polygon class="cls-29" points="1266.85 761.56 1265.77 755.16 904.11 760.33 1266.85 761.56"/><polygon class="cls-29" points="746.26 525.32 745.48 518.76 484.57 524.05 746.26 525.32"/><g class="cls-30"><g id="layer1"><g id="g7822"><path id="path7826" class="cls-31" d="M751.7,460.16l-7.9.72,7.63-7.12a4.75,4.75,0,0,1,.93,0,2.32,2.32,0,0,0,2.47-.9l3.78-4.71-.27-.25-3.9,3.64c-.35.32-.8-.1-.45-.42l3.9-3.64-.41-.38-3.9,3.64a.35.35,0,0,1-.49,0,.29.29,0,0,1,0-.45l3.9-3.65-.41-.37-3.9,3.64c-.34.32-.8-.1-.45-.42l3.9-3.64-.27-.26-5,3.53a2,2,0,0,0-1,2.3,4.15,4.15,0,0,1,0,.87l-7.33,6.84L747.49,444l13.86-3.29a19.38,19.38,0,0,0-5.59-.82c-10,0-18.06,7.54-18.06,16.85a16.79,16.79,0,0,0,10.11,15.14Z"/><path id="path7828" class="cls-31" d="M767.26,444.3l.36-5.89-10.3,17.53-.88,1.51-.1,0a4.1,4.1,0,0,0-3.16,2.2c-1,1.85-1.17,4.34.17,5s3.5-.79,4.64-2.57a3.64,3.64,0,0,0,.29-3.67l0-.08,1.57-2.67,8.93-.82-24.57,23.72,9.6-5.54.75,0c10,0,18.06-7.55,18.06-16.86a16.21,16.21,0,0,0-5.32-11.93"/></g></g></g><path class="cls-32" d="M2149.65,687.24c0,1.55-22.69,3.31-63.41,5.2-1.81.09-3.67.18-5.56.25C1744.52,707.81,283.89,730.94,35.86,724.42l-5.56-.16C10.6,723.67,0,722.85,0,721.78s12.21-.9,30.3-2.54q2.7-.24,5.56-.55c35.15-3.75,87.87-15,119.24-53.82q2-2.5,4-5.18c23.11-32.37,10.85-52.58,36.49-99,29.93-54.18,77-81.66,116.38-104,69-39.16,82.38-22.52,167.66-60,47-20.66,107.53-47.27,159.77-104,51.18-55.59,34.93-75.53,90.73-147,31.11-39.85,76.13-97.51,155.83-127,29-10.73,104.49-33.25,187.38-5,76.68,26.13,121.48,82.69,167.66,141,49.91,63,52.2,90.88,114.31,156.24,55.46,58.37,85.33,70.86,109.52,72,33.57,1.55,64.61-16.89,97.52-23.74,66.16-13.78,139.26,26.23,164.2,89.88,10.66,27.2,13.58,58.08,30.66,81.67,33.84,46.77,103.49,42.81,153.91,70.21,26.91,14.63,24.9,19.2,48.35,34A311.42,311.42,0,0,0,2021,664.87a355,355,0,0,0,59.67,15.56c1.88.33,3.74.63,5.56.92C2123.82,687.24,2149.6,685.58,2149.65,687.24Z"/></g></g></svg>