<?xml version="1.0" encoding="utf-8"?>
<!-- Generator: Adobe Illustrator 23.0.1, SVG Export Plug-In . SVG Version: 6.00 Build 0)  -->
<svg version="1.1" id="Calque_1" xmlns="http://www.w3.org/2000/svg" xmlns:xlink="http://www.w3.org/1999/xlink" x="0px" y="0px"
	 viewBox="0 0 2005.9 998.5" style="enable-background:new 0 0 2005.9 998.5;" xml:space="preserve">
<style type="text/css">
	.st0{fill:#F8F9FA;}
	.st1{fill:url(#SVGID_1_);}
	.st2{fill:url(#SVGID_2_);}
	.st3{fill:#78A9DB;}
	.st4{fill:none;stroke:#FBFBFB;stroke-width:1.53;stroke-miterlimit:10;}
	.st5{fill:#FBFBFB;}
	.st6{fill:#C55557;}
	.st7{fill:#0A0D1C;}
	.st8{fill:#434141;}
	.st9{fill:#97BBE1;}
	.st10{fill:#FFFFFF;}
	.st11{fill:#F4BC54;}
	.st12{fill:none;stroke:#0A0D1C;stroke-width:1.13;stroke-miterlimit:10;}
	.st13{fill:none;stroke:#0A0D1C;stroke-width:3.42;stroke-miterlimit:10;}
	.st14{fill:#E56164;}
	.st15{fill:#C65557;}
	.st16{fill:#E99496;}
	.st17{fill:#232B54;}
	.st18{opacity:0.57;}
	.st19{fill:#FFFFFF;stroke:#97BBE1;stroke-width:2;stroke-miterlimit:10;}
	.st20{fill:none;stroke:#97BBE1;stroke-width:2;stroke-miterlimit:10;}
	.st21{fill:none;stroke:#FFFFFF;stroke-width:0.61;stroke-miterlimit:10;}
	.st22{fill:#55588A;}
	.st23{fill:#606799;}
	.st24{fill:#28285B;}
	.st25{fill:#EB663E;}
	.st26{fill:#E7472B;}
	.st27{fill:#FABE00;}
	.st28{fill:#F6A613;}
	.st29{opacity:0.17;fill:#FFFFFF;enable-background:new    ;}
	.st30{opacity:0.85;}
	.st31{fill-rule:evenodd;clip-rule:evenodd;fill:#232B54;}
	.st32{fill:none;}
</style>
<title>biker_1</title>
<g id="Calque_4">
	<rect class="st0" width="2005.9" height="989.5"/>
</g>
<g id="Calque_3">
	
		<linearGradient id="SVGID_1_" gradientUnits="userSpaceOnUse" x1="737.4099" y1="233.6507" x2="1157.3348" y2="1387.3594" gradientTransform="matrix(1 0 0 1 0 -80)">
		<stop  offset="0" style="stop-color:#F1F1F1;stop-opacity:0.6"/>
		<stop  offset="5.000000e-02" style="stop-color:#BBBDD0;stop-opacity:0.74"/>
		<stop  offset="0.11" style="stop-color:#8C90B5;stop-opacity:0.85"/>
		<stop  offset="0.17" style="stop-color:#6B71A1;stop-opacity:0.94"/>
		<stop  offset="0.26" style="stop-color:#585E95;stop-opacity:0.99"/>
		<stop  offset="0.45" style="stop-color:#525992"/>
		<stop  offset="0.46" style="stop-color:#505790"/>
		<stop  offset="0.58" style="stop-color:#383F6F"/>
		<stop  offset="0.68" style="stop-color:#29305A"/>
		<stop  offset="0.75" style="stop-color:#232A53"/>
		<stop  offset="0.76" style="stop-color:#20274B"/>
		<stop  offset="0.79" style="stop-color:#1A1F3A"/>
		<stop  offset="0.82" style="stop-color:#151A2F"/>
		<stop  offset="0.87" style="stop-color:#131728"/>
		<stop  offset="0.99" style="stop-color:#121626"/>
	</linearGradient>
	<path class="st1" d="M2005.9,767.9v230.6H0V767.9h94.3c1.3-1.7,2.7-3.4,4-5.2c23.1-32.4,10.8-52.6,36.5-99
		c29.9-54.2,77-81.7,116.4-104c69-39.2,82.4-22.5,167.7-60c47-20.7,107.5-47.3,159.8-104c51.2-55.6,34.9-75.5,90.7-147
		c31.1-39.9,76.1-97.5,155.8-127c29-10.7,104.5-33.3,187.4-5c76.7,26.1,121.5,82.7,167.7,141c49.9,63,52.2,90.9,114.3,156.2
		c55.5,58.4,85.3,70.9,109.5,72c33.6,1.5,64.6-16.9,97.5-23.7c66.2-13.8,139.3,26.2,164.2,89.9c10.7,27.2,13.6,58.1,30.7,81.7
		c33.8,46.8,103.5,42.8,153.9,70.2c26.9,14.6,24.9,19.2,48.3,34c19.4,12.2,40,22.2,61.6,29.9L2005.9,767.9z"/>
	
		<linearGradient id="SVGID_2_" gradientUnits="userSpaceOnUse" x1="1002.95" y1="1081.847" x2="1002.95" y2="831.2471" gradientTransform="matrix(1 0 0 1 0 -80)">
		<stop  offset="0" style="stop-color:#F8AF3C"/>
		<stop  offset="3.000000e-02" style="stop-color:#F9B949"/>
		<stop  offset="7.000000e-02" style="stop-color:#FAC55A"/>
		<stop  offset="0.13" style="stop-color:#FACE65"/>
		<stop  offset="0.22" style="stop-color:#FBD46C"/>
		<stop  offset="0.45" style="stop-color:#FBD56E"/>
		<stop  offset="0.63" style="stop-color:#FAC458"/>
		<stop  offset="0.85" style="stop-color:#F8B543"/>
		<stop  offset="1" style="stop-color:#F8AF3C"/>
	</linearGradient>
	<rect x="-20" y="767.9" class="st2" width="2045.9" height="250.6"/>
	<path class="st3" d="M1162.2,429.3V460c0,0,6.5-1,6.5-17.1S1162.2,429.3,1162.2,429.3z"/>
	<path class="st3" d="M1185.4,488.5L1180,451c-0.3-2.2-2.1-3.8-4.2-4l-10.4-0.9l0.3-2.9l10.4,0.9c3.5,0.3,6.4,3,6.8,6.5l5.3,37.5
		L1185.4,488.5z"/>
	<path class="st4" d="M1190.5,501.4l-17.6-63.1c-1.5-5.4-6.4-9.1-12.1-9.1h-9.7"/>
	<ellipse class="st5" cx="1147.3" cy="427.7" rx="7.6" ry="22.8"/>
	
		<ellipse transform="matrix(0.1595 -0.9872 0.9872 0.1595 502.7744 1616.2843)" class="st5" cx="1200.6" cy="512.9" rx="24.2" ry="24.2"/>
	<path class="st6" d="M1171.7,482.2h31.3c2.5,0,4.6,2.1,4.6,4.6V539c0,2.5-2.1,4.6-4.6,4.6h-31.3c-2.5,0-4.6-2.1-4.6-4.6v-52.2
		C1167.1,484.3,1169.2,482.2,1171.7,482.2z"/>
	<rect x="674.3" y="759" class="st7" width="34.5" height="23.7"/>
	<circle class="st8" cx="1292.3" cy="821.3" r="95.8"/>
	<circle class="st9" cx="1292.3" cy="821.3" r="60.9"/>
	<path class="st10" d="M1274.6,821.3c0,9.8,7.9,17.8,17.8,17.8s17.8-7.9,17.8-17.8s-7.9-17.8-17.8-17.8S1274.6,811.5,1274.6,821.3
		L1274.6,821.3z"/>
	<path class="st6" d="M1292.6,688.3c69.3,0,125.4,56.2,125.4,125.5h-250.9C1167.1,744.5,1223.3,688.3,1292.6,688.3z"/>
	<rect x="679.5" y="495.9" class="st11" width="125.9" height="35.3"/>
	<rect x="666.7" y="530.8" class="st10" width="151.5" height="111.2"/>
	<line class="st12" x1="733.7" y1="495.9" x2="728.4" y2="645.2"/>
	<line class="st12" x1="745.2" y1="495.9" x2="750.6" y2="645.2"/>
	<line class="st13" x1="644.3" y1="645.2" x2="836.5" y2="645.2"/>
	<line class="st13" x1="708.9" y1="645.2" x2="751.7" y2="676.5"/>
	<path class="st14" d="M1176.4,491.9l-49.1,28.3l43.5,98.2c0,0,29.8,53,10.4,99.4c-21.9,52.4-47,79.7-47,79.7h-97.7
		c-19.9,0-38.5-9.9-49.7-26.5c-11.6-17.2-21.7-41-13.5-65.3c14.6-43.5,57.5-63.4,57.5-63.4H795c0,0-41.2,12.2-102,116.8h27.2
		l176.5,54.8H1132c0,0,27.1,9.2,64.5-50.9l60.5-57.4l0,0c0-28.2-9-55.8-25.6-78.6l-54.9-75.2L1176.4,491.9L1176.4,491.9z"/>
	<path class="st8" d="M994,646.7c4.9,0,9.6,1.9,13.2,5.3c8.4,8.1,25.5,21.6,38,10.4c17.2-15.4,1.8-41.2-24.5-38.9
		s-112.3,2.7-144-14.5s-43.9-18.1-53.9-7.3s5.9,41.1,35.3,45H994z"/>
	<circle class="st8" cx="817.5" cy="821.3" r="95.8"/>
	<circle class="st9" cx="817.5" cy="821.3" r="60.9"/>
	<path class="st10" d="M799.7,821.3c0,9.8,7.9,17.8,17.8,17.8s17.8-7.9,17.8-17.8s-7.9-17.8-17.8-17.8S799.7,811.5,799.7,821.3
		L799.7,821.3z"/>
	<path class="st15" d="M686,801.7c0,0,14-90.8,114.3-129.6s138.4,16.1,143.8,26.4c8.9,17.1,20.8,68.8-12.5,103.2H686z"/>
	<path class="st15" d="M759.8,773.5h111.3c2,0,3.7-1.6,3.7-3.7l0,0c0-2-1.6-3.7-3.7-3.7H759.8c-2,0-3.7,1.6-3.7,3.7l0,0
		C756.1,771.9,757.7,773.5,759.8,773.5z"/>
	<path class="st15" d="M772.2,755.8h89.1c2,0,3.7-1.6,3.7-3.7l0,0c0-2-1.6-3.7-3.7-3.7h-89.1c-2,0-3.7,1.6-3.7,3.7l0,0
		C768.5,754.2,770.2,755.8,772.2,755.8z"/>
	<path class="st15" d="M784.7,738.5h63.8c2,0,3.7-1.6,3.7-3.7l0,0c0-2-1.6-3.7-3.7-3.7h-63.8c-2,0-3.7,1.6-3.7,3.7l0,0
		C781,736.8,782.6,738.5,784.7,738.5z"/>
	<polygon class="st16" points="981.8,356.8 959.3,416 919.5,406.3 947.4,351.4 	"/>
	<path class="st16" d="M1000.3,325.8l3.9,39.4c1,9.7-6.1,18.4-15.9,19.4l0,0l0,0c-14,1.4-27.2-7-32.6-20l-12.7-30
		c-2.3-5.6,0.3-12,5.9-14.3c1-0.4,2-0.7,3.1-0.8l31.4-6.5C989.5,312.4,999.8,319.8,1000.3,325.8z"/>
	<path class="st16" d="M1001.5,343.4l8.1,9.8c1,1.7-0.8,3.6-3.1,3.5l-11.9,2.2L1001.5,343.4z"/>
	<path class="st17" d="M956.7,326.9c0,0,11.8,4.3,7.8,13.9c-3.4,8-1,22.3,9.5,19.2s21.4-6,29.5-2.6l2.5,10.7
		c2.1,8.9-3.3,17.9-12.2,20.2l-0.5,0.1c-16,3.8-41.4-3.2-41-31.5l-3-26L956.7,326.9z"/>
	<path class="st17" d="M947.8,312.6c-2.7,0.5-24.4-0.3-24.6,23.9c-0.1,15.4,12.7,32.6,12.8,32.4c0,0,7.9-0.5,10.2-11.8
		c0.6-2.9,0.1-4.9-0.9-6.4l16.9-21.7c0,0-4.7-3.5,2.6-7.9c13.2-7.8,28.2-4.7,28.2-4.7C988.8,302.4,950.5,312.1,947.8,312.6z"/>
	<path class="st16" d="M932.9,346.3c-3.7,9.6,4.9,18,13.7,15.2c4.1-1.3,7.1-4.9,7.6-9.2c1-9.2-8.8-16-17.6-10.5
		C935,342.8,933.7,344.4,932.9,346.3z"/>
	<path class="st9" d="M997.2,315.4l42.2-6.3c1.2-0.1,2.2,0.6,2.5,1.8c0.4,1.2-0.2,2.5-1.3,2.9c-0.1,0-0.2,0.1-0.3,0.1l-39.4,7.8
		c-1.6,0.3-3.2-0.7-3.6-2.3l0,0c-0.3-1.6-1.8-2.5-0.2-2.8C997.2,316.6,997.1,315.5,997.2,315.4z"/>
	<path class="st9" d="M921.2,338.6l81.1-17.1c0,0-8.1-37.7-49.3-29C912,301.3,921.2,338.6,921.2,338.6z"/>
	<path class="st10" d="M940.3,398.9c0,0-20.1-5.8-32.1,14.8c-14.3,24.4-10.8,63.1,0.8,94.3l5,58.2h95.9c0,0,4.3-64.1-14.2-105.1
		C971.3,407,940.3,398.9,940.3,398.9z"/>
	<path class="st16" d="M997.6,481.5l17.7,25.9c7.9,11.6,5.7,27.3-5.1,36.3l0,0c-11.6,9.6-28.7,8.1-38.3-3.5
		c-0.3-0.4-0.6-0.7-0.9-1.1L953,515L997.6,481.5z"/>
	<g class="st18">
		<path class="st19" d="M997.3,479.3l-27.1-40.6c-9.8-14.6-29.6-18.6-44.2-8.8c-1.3,0.8-2.5,1.8-3.6,2.8l0,0
			c-12,10.8-14.1,28.8-4.8,42l29.6,42.3L997.3,479.3z"/>
		<line class="st20" x1="997.6" y1="479.3" x2="973.1" y2="443"/>
		<polyline class="st20" points="953,512.8 947.1,517 913.3,465.9 		"/>
	</g>
	<path class="st16" d="M996.8,498l109.9,14.5l-4.4,30.8l-108.6,4.4c-18.2-2.6-31-16.8-25.1-34.2l0,0
		C973.3,500.1,982.8,495.8,996.8,498z"/>
	<path class="st16" d="M1098.6,516.3l43.7-20.3c4.3-2,9.4-1,12.5,2.6l12.9,16.3c3.1,3.5,4,8.5,2.1,12.8l-2,4.8
		c-0.9,2.1-2.4,4-4.4,5.3l-6,4c-3.3,2.2-7.6,1.8-10.4-0.9l-4.4-4.2l-18.9,6.6c0,0-14.1,6.9-30.5-4.8L1098.6,516.3z"/>
	<path class="st7" d="M1131.1,523.1l-9.3,5.7c-5.2,4.5-5.7,12.4-1.2,17.6c0.3,0.3,0.6,0.6,0.9,0.9l0,0c5,4.7,12.9,4.4,17.6-0.6
		l0.1-0.1l8.7-6.3c4.5-4.9,4.1-12.5-0.7-17c0,0,0,0-0.1,0l0,0C1142.5,519.2,1135.7,519.1,1131.1,523.1z"/>
	<polygon class="st10" points="1055.6,706.5 1100.7,710.1 1100.5,752.7 1057.3,753.4 	"/>
	<path class="st17" d="M1053.5,748.5l0.5,42.5l110.3-1.2c0,0,0-18.2-22.5-21.3s-27.7-1.5-32.9-8.2c-2.9-3.8-3.7-9-3.9-12.4
		c-0.1-2.1-1.8-3.7-3.9-3.7l-43.8,0.5C1055.2,744.6,1053.5,746.4,1053.5,748.5L1053.5,748.5z"/>
	
		<rect x="1050" y="790.4" transform="matrix(0.9999 -1.099588e-02 1.099588e-02 0.9999 -8.6628 12.2463)" class="st17" width="118.8" height="7.1"/>
	<path class="st17" d="M1098.5,757.9c0,0.9,0.8,1.7,1.7,1.7c0.9,0,1.7-0.8,1.7-1.7s-0.8-1.7-1.7-1.7l0,0
		C1099.2,756.2,1098.5,756.9,1098.5,757.9z"/>
	<path class="st17" d="M1103.7,765.2c0,0.9,0.8,1.7,1.7,1.7c0.9,0,1.7-0.8,1.7-1.7s-0.8-1.7-1.7-1.7l0,0
		C1104.4,763.6,1103.7,764.3,1103.7,765.2L1103.7,765.2z"/>
	<path class="st17" d="M1113.4,769.7c0,0.9,0.8,1.7,1.7,1.6c0.9,0,1.7-0.8,1.6-1.7s-0.8-1.7-1.7-1.6l0,0
		C1114.1,768,1113.4,768.8,1113.4,769.7z"/>
	<path class="st17" d="M1124.6,771.2c0,0.9,0.8,1.7,1.7,1.7c0.9,0,1.7-0.8,1.7-1.7s-0.8-1.7-1.7-1.7l0,0
		C1125.3,769.6,1124.6,770.3,1124.6,771.2L1124.6,771.2z"/>
	<line class="st21" x1="1054" y1="791" x2="1164.3" y2="789.8"/>
	<rect x="1044.8" y="600.1" class="st22" width="67.9" height="126.3"/>
	<rect x="1038" y="702.2" class="st23" width="82.7" height="24.2"/>
	<path class="st22" d="M914,566c0,0-24.3,69.3,42.1,69.3H1078c19.1,0,34.7-15.5,34.7-34.7l0,0l0,0c0-19.1-15.5-34.7-34.7-34.7l0,0
		H914V566z"/>
	<path class="st24" d="M976.9,331.1c-0.1-0.2,4.5-2.4,10.1-3.9c6.2-1.7,8.6-1.1,8.8-0.5c0.1,0.3,0.1,0.7,0.2,1
		c0,0.3,0.1,0.6,0.1,0.9c-0.2,1-3.6,1.8-6.1,1.3c-0.3,0-0.9-0.2-1.8-0.4s-1.7-0.2-1.9-0.3c-1.3-0.1-2.7,0.1-5.8,1
		C977.7,330.9,977,331.2,976.9,331.1z"/>
	<path class="st25" d="M561.1,814.2c8.1-3,15.7-7.3,22.3-12.8c0,0-90.5-2.9-94.7-52.4c61.5,19.6,86.2-6.1,54.6-20.1
		c36.4-13.2,61.6,2.9,61.6,2.9c3.1-6.8-6.4-13.9-6.4-13.9c1.3,0.1,2.7,0.2,4.1,0.4c39.5,4.5,66.2,30.5,59.7,58.1
		S618.5,822.5,579,818C572.9,817.3,566.9,816,561.1,814.2z"/>
	<path class="st26" d="M604,719.1c0,0,9.5,7.1,6.4,13.9c0,0-25.2-16.1-61.6-2.9c31.6,14,6.9,39.8-54.6,20.1c0.2,2.6,0.7,5.1,1.4,7.6
		l172.1,19.8c6.5-27.5-20.2-53.5-59.7-58.1C606.7,719.3,605.3,719.2,604,719.1z"/>
	<path class="st27" d="M636.3,795.8c17.3,2,33.7-6.2,36.5-18.3s-8.9-23.5-26.2-25.5c-8.6-1.1-17.3,0.5-25,4.6
		c14.5,10.3-13.3,19.5-29.4,8C592.2,764.7,590.8,790.6,636.3,795.8z"/>
	<path class="st28" d="M646.6,752.1c-8.6-1.1-17.3,0.5-25,4.6c14.5,10.3-13.3,19.5-29.4,8c0,1.2,0.1,2.4,0.4,3.6l80.2,9.2
		C675.6,765.5,663.9,754.1,646.6,752.1z"/>
	<polygon class="st29" points="926.6,389.5 926,383 719,388.3 	"/>
	<polygon class="st29" points="910.6,452.7 909.7,446.1 597.5,451.4 	"/>
	<polygon class="st29" points="917.5,422.6 916.5,416.2 554.8,421.4 	"/>
	<polygon class="st29" points="667.8,606.4 667.3,600 494.2,605.2 	"/>
	<polygon class="st29" points="795.6,582.3 794.8,575.8 533.9,581.1 	"/>
	<polygon class="st29" points="792.3,561 791.4,554.6 489.1,559.8 	"/>
	<polygon class="st29" points="1201.2,834.6 1200.5,828.2 993.5,833.3 	"/>
	<polygon class="st29" points="1229.6,887.8 1228.7,881.3 916.5,886.6 	"/>
	<polygon class="st29" points="1206.1,864.6 1205,858.2 843.3,863.4 	"/>
	<polygon class="st29" points="685.5,628.4 684.7,621.8 423.8,627.1 	"/>
	<g class="st30">
		<g id="layer1">
			<g id="g7822">
				<path id="path7826" class="st31" d="M690.9,563.2l-7.9,0.7l7.6-7.1c0.3,0,0.6,0,0.9,0c0.9,0.2,1.9-0.1,2.5-0.9l3.8-4.7l-0.3-0.3
					l-3.9,3.6c-0.3,0.3-0.8-0.1-0.5-0.4l3.9-3.6l-0.4-0.4l-3.9,3.6c-0.1,0.1-0.3,0.1-0.5,0c-0.1-0.1-0.1-0.3,0-0.4l0,0l3.9-3.6
					l-0.4-0.4l-3.9,3.7c-0.3,0.3-0.8-0.1-0.5-0.4l3.9-3.6l-0.3-0.3l-5,3.5c-0.8,0.4-1.2,1.4-1,2.3c0,0.3,0,0.6,0,0.9l-7.3,6.8
					l4.9-15.1l13.9-3.3c-1.8-0.5-3.7-0.8-5.5-0.8c-10,0-18.1,7.5-18.1,16.8c0.1,6.6,4,12.5,10.1,15.2L690.9,563.2z"/>
				<path id="path7828" class="st31" d="M706.5,547.4l0.4-5.9L696.5,559l-0.9,1.5h-0.1c-1.4,0.2-2.5,1-3.2,2.2c-1,1.8-1.2,4.3,0.2,5
					s3.5-0.8,4.6-2.6c0.8-1.1,0.9-2.5,0.3-3.7v-0.1l1.6-2.7l8.9-0.7l-24.6,23.7l9.6-5.5h0.7c10,0,18.1-7.5,18.1-16.9
					C711.8,554.8,709.9,550.4,706.5,547.4L706.5,547.4z"/>
			</g>
		</g>
	</g>
	<path class="st32" d="M2005.9,780.8v15.5c-113.7,4.8-333.1,10.3-587.9,15.3l-30.3,0.6l-35,0.7l-43.3,0.8h-1l-32.4,0.6
		c-14.7,0.3-29.4,0.5-44.3,0.8l-35,0.6c-93.6,1.7-189,3.2-283.4,4.7l-34.9,0.5l-43.2,0.6l-35.5,0.5l-43.2,0.6l-34.9,0.5
		C402,827.5,119.6,829.8,0,828v-9.9c32.1-6.2,69.7-19.7,94.3-50.1c1.3-1.7,2.7-3.4,4-5.2c23.1-32.4,10.8-52.6,36.5-99
		c29.9-54.2,77-81.7,116.4-104c69-39.2,82.4-22.5,167.7-60c47-20.7,107.5-47.3,159.8-104c51.2-55.6,34.9-75.5,90.7-147
		c31.1-39.9,76.1-97.5,155.8-127c29-10.7,104.5-33.3,187.4-5c76.7,26.1,121.5,82.7,167.7,141c49.9,63,52.2,90.9,114.3,156.2
		c55.5,58.4,85.3,70.9,109.5,72c33.6,1.5,64.6-16.9,97.5-23.7c66.2-13.8,139.3,26.2,164.2,89.9c10.7,27.2,13.6,58.1,30.7,81.7
		c33.8,46.8,103.5,42.8,153.9,70.2c26.9,14.6,24.9,19.2,48.3,34c19.4,12.2,40,22.2,61.6,29.9
		C1975.2,773.3,1990.4,777.6,2005.9,780.8z"/>
</g>
</svg>
