<svg xmlns="http://www.w3.org/2000/svg" xmlns:xlink="http://www.w3.org/1999/xlink" viewBox="0 0 213.98 74.05"><defs><style>.cls-1{fill:#010101;stroke:#fff;stroke-miterlimit:10;stroke-width:1.18px;}.cls-2{fill:#fff;}.cls-3{fill:none;}.cls-4{fill:url(#linear-gradient);}.cls-5{fill:url(#linear-gradient-2);}.cls-6{fill:url(#linear-gradient-3);}.cls-7{fill:url(#linear-gradient-4);}</style><linearGradient id="linear-gradient" x1="490.88" y1="-499.19" x2="468.04" y2="-513.49" gradientTransform="translate(-675.67 51.32) rotate(45)" gradientUnits="userSpaceOnUse"><stop offset="0" stop-color="#d6e59d"/><stop offset="0.45" stop-color="#94c3a9"/><stop offset="1" stop-color="#00a3b6"/></linearGradient><linearGradient id="linear-gradient-2" x1="477.6" y1="-511.41" x2="507.22" y2="-503.67" gradientTransform="translate(-675.67 51.32) rotate(45)" gradientUnits="userSpaceOnUse"><stop offset="0" stop-color="#ec297b"/><stop offset="0.02" stop-color="#ed327c"/><stop offset="0.7" stop-color="#f5bb80"/><stop offset="1" stop-color="#fce974"/></linearGradient><linearGradient id="linear-gradient-3" x1="494.13" y1="-488.35" x2="462.02" y2="-507.25" gradientTransform="translate(-675.67 51.32) rotate(45)" gradientUnits="userSpaceOnUse"><stop offset="0" stop-color="#88cebc"/><stop offset="0.09" stop-color="#7dbdba"/><stop offset="0.54" stop-color="#467cac"/><stop offset="0.85" stop-color="#1d5aa1"/><stop offset="1" stop-color="#094f9c"/></linearGradient><linearGradient id="linear-gradient-4" x1="505.8" y1="-503.36" x2="486.02" y2="-477.3" gradientTransform="translate(-675.67 51.32) rotate(45)" gradientUnits="userSpaceOnUse"><stop offset="0" stop-color="#ef4b29"/><stop offset="0.47" stop-color="#b4506b"/><stop offset="0.84" stop-color="#8b5191"/><stop offset="1" stop-color="#7951a0"/></linearGradient></defs><title>playStore</title><g id="Calque_2" data-name="Calque 2"><g id="layer_1" data-name="layer 1"><g id="bubbles"><path class="cls-1" d="M213.4,63c0,6.46-4.75,10.48-11.21,10.48H12.29A11.7,11.7,0,0,1,.59,61.75V12.29A11.7,11.7,0,0,1,12.29.59h189.9c6.46,0,11.21,5.24,11.21,11.7Z"/><path class="cls-1" d="M213.4,63c0,6.46-4.75,10.48-11.21,10.48H12.29A11.7,11.7,0,0,1,.59,61.75V12.29A11.7,11.7,0,0,1,12.29.59h189.9c6.46,0,11.21,5.24,11.21,11.7Z"/><path class="cls-2" d="M146,52.89l-1.6,1.51c-.37.2-.74.44-1.1.61a7.8,7.8,0,0,1-3.24.63,7.14,7.14,0,0,1-4.45-1.31,8.64,8.64,0,0,1-3.41-7,7.58,7.58,0,0,1,7.66-7.72,6.45,6.45,0,0,1,3.44.94,5.59,5.59,0,0,1,2.34,3.3L137.81,47l-2.58.2c.84,4.24,3.71,6.71,6.89,6.71a8.18,8.18,0,0,0,3.84-1S146.18,52.74,146,52.89Zm-4.74-8.44c.64-.23,1-.44,1-.9a3.32,3.32,0,0,0-3.31-2.87c-1.33,0-3.84,1-3.84,4.65,0,.56.07,1.16.1,1.76Z"/><path class="cls-2" d="M129.6,52.63c0,1.3.23,1.5,1.33,1.61.57.07,1.14.09,1.71.16l-1.24.74h-5.88c.77-1,.9-1.1.9-1.77V32.76h-2.6l2.5-1.2h4.77a2.32,2.32,0,0,0-1.48,2.13Z"/><path class="cls-2" d="M120.47,41.21a5.64,5.64,0,0,1,2.37,4.51c0,2.47-1.4,3.64-2.8,4.74a2.36,2.36,0,0,0-.94,1.64,1.83,1.83,0,0,0,.87,1.44l1.21.93c1.46,1.23,2.8,2.37,2.8,4.68,0,3.14-3,6.31-8.79,6.31-4.84,0-7.18-2.3-7.18-4.78a4.79,4.79,0,0,1,2.57-4.07c2.08-1.27,4.88-1.44,6.39-1.54a3.51,3.51,0,0,1-1-2.27,3,3,0,0,1,.34-1.31,10.4,10.4,0,0,1-1.07.08,5.29,5.29,0,0,1-5.55-5.25,6,6,0,0,1,2.14-4.48,9.09,9.09,0,0,1,6-1.84h6.88l-2.14,1.21ZM118.1,56a6.11,6.11,0,0,0-.77,0,13.59,13.59,0,0,0-3.5.53c-.74.28-2.88,1.07-2.88,3.45s2.31,4.07,5.88,4.07c3.21,0,4.91-1.53,4.91-3.6C121.74,58.75,120.64,57.85,118.1,56Zm1-6.35a3.33,3.33,0,0,0,.84-2.44c0-2.4-1.43-6.14-4.21-6.14a3.14,3.14,0,0,0-2.34,1.1,3.89,3.89,0,0,0-.73,2.47c0,2.24,1.3,6,4.17,6A3.42,3.42,0,0,0,119.06,49.69Z"/><path class="cls-2" d="M99.76,55.57a7.87,7.87,0,0,1-8.15-7.88c0-4.37,3.57-8.12,8.65-8.12a7.81,7.81,0,0,1,8,7.88A8.16,8.16,0,0,1,99.76,55.57Zm4.17-2.7a6,6,0,0,0,1-3.71c0-2.94-1.4-8.55-5.55-8.55a4.67,4.67,0,0,0-3,1.13,5,5,0,0,0-1.54,4.08c0,3.3,1.64,8.75,5.69,8.75A4.26,4.26,0,0,0,103.93,52.87Z"/><path class="cls-2" d="M82,55.57a7.87,7.87,0,0,1-8.15-7.88c0-4.37,3.57-8.12,8.65-8.12a7.81,7.81,0,0,1,8,7.88A8.15,8.15,0,0,1,82,55.57Zm4.18-2.7a6.07,6.07,0,0,0,1-3.71c0-2.94-1.41-8.55-5.55-8.55a4.64,4.64,0,0,0-3,1.13,5,5,0,0,0-1.54,4.08c0,3.3,1.64,8.75,5.68,8.75A4.28,4.28,0,0,0,86.16,52.87Z"/><path class="cls-2" d="M71.71,54.41l-4.48,1a33.63,33.63,0,0,1-5.17.54c-8.64,0-11.93-6.36-11.93-11.34,0-6.08,4.66-11.71,12.65-11.71a18,18,0,0,1,4.79.65,12.08,12.08,0,0,1,4.14,2L69.1,38,68,38.24,68.79,37a8.92,8.92,0,0,0-6.7-3c-5,0-8.67,3.76-8.67,9.24,0,5.89,4.25,11.43,11.08,11.43a9.23,9.23,0,0,0,4-.78v-5l-4.73.26,2.51-1.35h6.64l-.82.78a.75.75,0,0,0-.31.5c0,.29-.06,1.2-.06,1.51v3.82Z"/><path class="cls-2" d="M155.65,53v8.51H154V39.89h1.69v2.47a6.7,6.7,0,0,1,5.45-2.86c4.19,0,7,3.18,7,8.21s-2.82,8.24-7,8.24A6.67,6.67,0,0,1,155.65,53Zm10.65-5.33c0-3.79-2-6.68-5.49-6.68a6.72,6.72,0,0,0-5.16,3.2v6.93c.91,1.5,3,3.27,5.16,3.27C164.32,54.43,166.3,51.51,166.3,47.71Z"/><path class="cls-2" d="M170.42,55.57V33.92h1.69V55.57Z"/><path class="cls-2" d="M191.07,60.15a4,4,0,0,0,1.37.26c1,0,1.75-.43,2.4-1.92l1.23-2.79-6.65-15.81h1.88L197,53.59l5.66-13.7h1.91L196.46,59a4.14,4.14,0,0,1-4,2.92,7.14,7.14,0,0,1-1.69-.22Z"/><path class="cls-2" d="M186.13,55.52c-.11-.55-.19-1-.25-1.42a8.29,8.29,0,0,1-.08-1.23A6.64,6.64,0,0,1,183.35,55a6.77,6.77,0,0,1-3.42.84,5.53,5.53,0,0,1-3.83-1.23,4.27,4.27,0,0,1-1.37-3.34,3.94,3.94,0,0,1,2-3.42,9.2,9.2,0,0,1,5.14-1.31h4v-2a3.27,3.27,0,0,0-1.15-2.64,4.91,4.91,0,0,0-3.24-1,5.1,5.1,0,0,0-3.09.87A2.63,2.63,0,0,0,177.15,44h-1.73l0-.08A3.63,3.63,0,0,1,177,40.84a8.16,8.16,0,0,1,9,0,4.52,4.52,0,0,1,1.68,3.8v7.73a12.1,12.1,0,0,0,.1,1.61,9.23,9.23,0,0,0,.34,1.56Zm-6-1.23a6.33,6.33,0,0,0,3.52-1,4.8,4.8,0,0,0,2.13-2.44v-3h-4a6.47,6.47,0,0,0-3.75,1,2.93,2.93,0,0,0-1.49,2.43,2.69,2.69,0,0,0,.95,2.15A3.82,3.82,0,0,0,180.14,54.29Z"/><path class="cls-2" d="M50.2,16.15a5.31,5.31,0,0,1,5.54-5.46A5,5,0,0,1,60,12.87l-1.5.87a3.42,3.42,0,0,0-2.75-1.41,3.61,3.61,0,0,0-3.64,3.82A3.62,3.62,0,0,0,55.74,20,3.81,3.81,0,0,0,58.25,19V17.39H55.08V15.76h5V19.7a5.67,5.67,0,0,1-4.34,1.94A5.33,5.33,0,0,1,50.2,16.15Z"/><path class="cls-2" d="M62.38,21.43V10.86h7.24v1.63H64.23v2.73h5.28v1.63H64.23V19.8h5.39v1.63Z"/><path class="cls-2" d="M74.75,21.43V12.49h-3.2V10.86h8.26v1.63h-3.2v8.94Z"/><path class="cls-2" d="M86.25,21.43V10.86H88.1V21.43Z"/><path class="cls-2" d="M93.27,21.43V12.49h-3.2V10.86h8.25v1.63h-3.2v8.94Z"/><path class="cls-2" d="M104.31,16.15a5.4,5.4,0,1,1,10.8,0,5.4,5.4,0,1,1-10.8,0Zm8.9,0a3.51,3.51,0,1,0-7,0,3.51,3.51,0,1,0,7,0Z"/><path class="cls-2" d="M124.65,21.43l-5.52-7.56v7.56h-1.85V10.86h1.9l5.4,7.32V10.86h1.86V21.43Z"/><polygon class="cls-3" points="28.06 46.83 33.48 41.41 33.48 41.41 28.06 46.83 10.76 29.53 10.76 29.53 28.06 46.84 10.73 64.16 10.73 64.16 28.06 46.84 33.51 52.28 33.51 52.28 28.06 46.83"/><path class="cls-4" d="M33.48,41.41,12.36,29.8a2.07,2.07,0,0,0-1.6-.27l17.3,17.3Z"/><path class="cls-5" d="M33.51,52.28l7.21-4c1.46-.81,1.46-2.12,0-2.92l-7.24-4-5.42,5.42Z"/><path class="cls-6" d="M10.76,29.53A1.73,1.73,0,0,0,9.7,31.37v31a1.75,1.75,0,0,0,1,1.82L28.06,46.83Z"/><path class="cls-7" d="M10.73,64.16a2,2,0,0,0,1.63-.25L33.51,52.28l-5.45-5.45Z"/></g></g></g></svg>